<svg xmlns="http://www.w3.org/2000/svg" width="1462" height="307" viewBox="0 0 1462 307" fill="none">
    <g clip-path="url(#clip0_2_1311)">
        <rect width="1462" height="307" fill="#EFF4F8"/>
        <ellipse cx="-28.4936" cy="307.93" rx="98.9217" ry="94.8564" transform="rotate(9.97348 -28.4936 307.93)" fill="#C1CFDA" fill-opacity="0.49"/>
        <ellipse cx="1181.76" cy="195.276" rx="320.984" ry="300.231" transform="rotate(16.7178 1181.76 195.276)" fill="#FCFCFC" fill-opacity="0.5"/>
        <ellipse cx="1129.02" cy="-92.8239" rx="327.803" ry="283.696" transform="rotate(9.97348 1129.02 -92.8239)" fill="#DDE8F0" fill-opacity="0.4"/>
        <circle cx="864.277" cy="208.504" r="22.0157" fill="#D1F0E6"/>
        <circle cx="102.922" cy="61.2972" r="7.99274" fill="#D1F0E6"/>
        <circle cx="1399.42" cy="108.4" r="5.95898" fill="#EDB572"/>
        <circle cx="67.6716" cy="247.398" r="3.23421" fill="#EDB572"/>
        <circle cx="986.861" cy="83.8187" r="3.23421" fill="#51B4F2" fill-opacity="0.66"/>
        <path d="M1406.55 298.399L927.925 298.26C927.764 298.26 927.633 298.13 927.633 297.968C927.633 294.695 930.291 292.04 933.568 292.042L1400.62 292.178C1403.89 292.178 1406.55 294.834 1406.55 298.107V298.399H1406.55Z" fill="#95B5CE"/>
        <path d="M943.515 293.34C943.212 293.002 934.558 285.034 934.861 279.2C935.164 273.365 938.587 274.938 940.299 276.395C941.479 277.401 947.041 283.465 947.041 283.465C947.041 283.465 942.11 274.121 941.409 269.93C940.704 265.739 942.078 265.123 943.423 265.513C944.695 265.883 947.048 269.93 947.048 269.93C947.048 269.93 943.599 254.351 943.254 249.216C942.955 244.757 947.636 243.244 949.372 245.095C951.634 247.509 953.198 251.38 953.899 261.811C954.599 272.246 955.702 285.819 955.702 285.819C955.702 285.819 954.98 274.762 957.474 271.341C960.975 266.537 965.099 269.071 964.293 275.212C963.472 281.455 957.586 293.336 957.586 293.336H943.518L943.515 293.34Z" fill="#95B5CE"/>
        <path d="M1388.89 292.26C1388.89 292.26 1400.86 281.28 1399.28 276.71C1397.69 272.14 1383.73 286.804 1383.73 286.804C1383.73 286.804 1390.94 274.982 1392.05 266.983C1393.24 258.434 1388.69 256.097 1385.65 259.916C1382.9 263.362 1376.82 283.523 1376.82 283.523C1376.82 283.523 1382.23 258.993 1379.46 249.262C1376.68 239.531 1367.68 241.447 1367.68 251.321C1367.68 261.2 1369.91 284.225 1369.91 284.225C1369.91 284.225 1367.93 273.492 1363.57 270.837C1359.2 268.183 1358.37 273.894 1360.88 281.119C1363.4 288.343 1364.82 292.251 1364.82 292.251L1388.89 292.26H1388.89Z" fill="#95B5CE"/>
        <path d="M1176.23 55.3234C1176.23 43.8475 1166.92 34.543 1155.43 34.543C1143.94 34.543 1134.63 43.8458 1134.63 55.3234C1134.63 64.9116 1141.13 72.9782 1149.97 75.3748L1155.43 87.5247L1160.89 75.3748C1169.73 72.9782 1176.23 64.9116 1176.23 55.3234Z" fill="#599DD9"/>
        <path d="M1166.56 70.3222H1144.31V42.2815H1160.46L1166.55 45.524V70.3222H1166.56ZM1145.48 69.1566H1165.39V46.2237L1160.17 43.4454H1145.48V69.1549V69.1566Z" fill="white"/>
        <path d="M1149.98 53.2364L1147.9 51.4312L1148.67 50.5526L1149.97 51.689L1152.7 49.301L1153.47 50.1778L1149.98 53.2364Z" fill="white"/>
        <path d="M1162.58 50.5181H1154.78V51.6837H1162.58V50.5181Z" fill="white"/>
        <path d="M1149.98 58.437L1147.9 56.6318L1148.67 55.7533L1149.97 56.8897L1152.7 54.5017L1153.47 55.3785L1149.98 58.437Z" fill="white"/>
        <path d="M1162.58 55.719H1154.78V56.8846H1162.58V55.719Z" fill="white"/>
        <path d="M1149.98 63.638L1147.9 61.8328L1148.67 60.9542L1149.97 62.0889L1152.7 59.7026L1153.47 60.5794L1149.98 63.638Z" fill="white"/>
        <path d="M1162.58 60.9199H1154.78V62.0856H1162.58V60.9199Z" fill="white"/>
        <path d="M1165.52 47.6938C1169.63 47.6938 1172.97 44.3608 1172.97 40.2495C1172.97 36.1381 1169.63 32.8052 1165.52 32.8052C1161.4 32.8052 1158.07 36.1381 1158.07 40.2495C1158.07 44.3608 1161.4 47.6938 1165.52 47.6938Z" fill="#A6D8E0"/>
        <path d="M1166.86 47.2589C1170.74 47.2589 1173.88 44.1207 1173.88 40.2496C1173.88 36.3784 1170.74 33.2402 1166.86 33.2402C1162.99 33.2402 1159.85 36.3784 1159.85 40.2496C1159.85 44.1207 1162.99 47.2589 1166.86 47.2589Z" fill="white"/>
        <path d="M1166.86 47.4598V47.0575C1170.62 47.0575 1173.68 44.0041 1173.68 40.2493C1173.68 36.4945 1170.62 33.4411 1166.86 33.4411V33.0388C1170.84 33.0388 1174.08 36.2727 1174.08 40.2476C1174.08 44.2224 1170.84 47.4563 1166.86 47.4563V47.4598Z" fill="#A6D8E0"/>
        <path d="M1166.86 36.3311L1167.84 39.3242H1170.99L1168.44 41.1741L1169.41 44.1673L1166.86 42.3174L1164.31 44.1673L1165.29 41.1741L1162.74 39.3242H1165.89L1166.86 36.3311Z" fill="#EDB572"/>
        <path d="M1339.97 268.91H1247.96V290.246H1339.97V268.91Z" fill="white"/>
        <path d="M1339.97 271.098H1241.85V272.573H1339.97V271.098Z" fill="#A1D8D2"/>
        <path d="M1339.97 273.679H1241.85V275.154H1339.97V273.679Z" fill="#A1D8D2"/>
        <path d="M1339.97 276.26H1241.85V277.735H1339.97V276.26Z" fill="#A1D8D2"/>
        <path d="M1339.97 278.84H1241.85V280.315H1339.97V278.84Z" fill="#A1D8D2"/>
        <path d="M1339.97 281.422H1241.85V282.897H1339.97V281.422Z" fill="#A1D8D2"/>
        <path d="M1339.97 284.003H1241.85V285.478H1339.97V284.003Z" fill="#A1D8D2"/>
        <path d="M1339.97 286.583H1241.85V288.059H1339.97V286.583Z" fill="#A1D8D2"/>
        <path d="M1189.15 267.043V292.116H1289.88L1288.87 287.323L1288.43 272.68L1289.88 267.043H1189.15ZM1268.93 287.581C1264.51 287.581 1260.92 283.998 1260.92 279.579C1260.92 275.161 1264.51 271.578 1268.93 271.578C1273.35 271.578 1276.94 275.161 1276.94 279.579C1276.94 283.998 1273.35 287.581 1268.93 287.581Z" fill="#EDB572"/>
        <path d="M1289.24 271.836V287.323C1289.24 288.544 1290.23 289.536 1291.45 289.536H1342.43V292.116H1289.22C1287.84 292.116 1286.73 291.004 1286.73 289.632V269.527C1286.73 268.155 1287.84 267.043 1289.22 267.043H1342.43V269.623H1291.45C1290.23 269.623 1289.24 270.614 1289.24 271.836Z" fill="#DD9978"/>
        <path d="M1246.23 274.293H1205.54C1204.73 274.293 1204.06 274.953 1204.06 275.768V283.386C1204.06 284.2 1204.73 284.861 1205.54 284.861H1246.23C1247.05 284.861 1247.71 284.2 1247.71 283.386V275.768C1247.71 274.953 1247.05 274.293 1246.23 274.293Z" fill="white"/>
        <path d="M1212.15 274.293H1211.26V284.863H1212.15V274.293Z" fill="#A1D8D2"/>
        <path d="M1220.65 274.293H1219.76V284.863H1220.65V274.293Z" fill="#A1D8D2"/>
        <path d="M1229.15 274.293H1228.26V284.863H1229.15V274.293Z" fill="#A1D8D2"/>
        <path d="M1237.65 274.293H1236.76V284.863H1237.65V274.293Z" fill="#A1D8D2"/>
        <path d="M1247.71 275.768V283.387C1247.71 284.202 1247.05 284.863 1246.23 284.863H1242.35V274.294H1246.23C1247.05 274.294 1247.71 274.955 1247.71 275.77V275.768Z" fill="#DD9978"/>
        <g opacity="0.5">
            <path d="M1266.06 286.264C1266.06 286.264 1263.55 283.068 1264.93 278.84C1266.31 274.612 1272.46 273.531 1272.46 273.531C1272.46 273.531 1267.98 271.762 1266.31 272.498C1264.64 273.235 1261.98 277.463 1261.98 277.463V281.051L1263.9 284.739L1266.06 286.262V286.264Z" fill="#3D95A9"/>
        </g>
        <path d="M1268.92 287.542C1264.52 287.542 1260.95 283.97 1260.95 279.579C1260.95 275.188 1264.52 271.615 1268.92 271.615C1273.31 271.615 1276.89 275.188 1276.89 279.579C1276.89 283.97 1273.31 287.542 1268.92 287.542ZM1268.92 273.089C1265.34 273.089 1262.42 276 1262.42 279.579C1262.42 283.158 1265.34 286.069 1268.92 286.069C1272.5 286.069 1275.41 283.158 1275.41 279.579C1275.41 276 1272.5 273.089 1268.92 273.089Z" fill="#DD9978"/>
        <path d="M1169.37 265.16H1261.38V243.824H1169.37V265.16Z" fill="white"/>
        <path d="M1169.37 247.487H1267.49V246.011H1169.37V247.487Z" fill="#A1D8D2"/>
        <path d="M1169.37 250.067H1267.49V248.592H1169.37V250.067Z" fill="#A1D8D2"/>
        <path d="M1169.37 252.647H1267.49V251.172H1169.37V252.647Z" fill="#A1D8D2"/>
        <path d="M1169.37 255.228H1267.49V253.753H1169.37V255.228Z" fill="#A1D8D2"/>
        <path d="M1169.37 257.811H1267.49V256.335H1169.37V257.811Z" fill="#A1D8D2"/>
        <path d="M1169.37 260.393H1267.49V258.918H1169.37V260.393Z" fill="#A1D8D2"/>
        <path d="M1169.37 262.971H1267.49V261.496H1169.37V262.971Z" fill="#A1D8D2"/>
        <path d="M1219.46 241.956L1220.91 247.593L1220.46 262.236L1219.46 267.029H1320.18V241.956H1219.46ZM1232.4 254.492C1232.4 250.074 1235.99 246.491 1240.41 246.491C1244.83 246.491 1248.42 250.074 1248.42 254.492C1248.42 258.911 1244.83 262.494 1240.41 262.494C1235.99 262.494 1232.4 258.911 1232.4 254.492Z" fill="#41B7B3"/>
        <path d="M1220.1 246.749V262.236C1220.1 263.457 1219.11 264.449 1217.89 264.449H1166.91V267.029H1220.12C1221.5 267.029 1222.61 265.917 1222.61 264.545V244.44C1222.61 243.068 1221.5 241.956 1220.12 241.956H1166.91V244.536H1217.89C1219.11 244.536 1220.1 245.527 1220.1 246.749Z" fill="#3D95A9"/>
        <path d="M1303.8 249.208H1263.11C1262.29 249.208 1261.63 249.868 1261.63 250.683V258.301C1261.63 259.115 1262.29 259.776 1263.11 259.776H1303.8C1304.61 259.776 1305.28 259.115 1305.28 258.301V250.683C1305.28 249.868 1304.61 249.208 1303.8 249.208Z" fill="white"/>
        <path d="M1298.08 249.208H1297.19V259.777H1298.08V249.208Z" fill="#A1D8D2"/>
        <path d="M1289.58 249.208H1288.69V259.777H1289.58V249.208Z" fill="#A1D8D2"/>
        <path d="M1281.08 249.208H1280.19V259.777H1281.08V249.208Z" fill="#A1D8D2"/>
        <path d="M1272.58 249.208H1271.69V259.777H1272.58V249.208Z" fill="#A1D8D2"/>
        <path d="M1261.63 250.683V258.302C1261.63 259.117 1262.29 259.777 1263.11 259.777H1266.99V249.209H1263.11C1262.29 249.209 1261.63 249.869 1261.63 250.684V250.683Z" fill="#3D95A9"/>
        <g opacity="0.5">
            <path d="M1243.28 261.179C1243.28 261.179 1245.79 257.983 1244.41 253.755C1243.03 249.527 1236.88 248.446 1236.88 248.446C1236.88 248.446 1241.36 246.677 1243.03 247.413C1244.7 248.15 1247.36 252.378 1247.36 252.378V255.966L1245.44 259.654L1243.28 261.177V261.179Z" fill="#3D95A9"/>
        </g>
        <path d="M1232.45 254.491C1232.45 250.1 1236.03 246.527 1240.42 246.527C1244.82 246.527 1248.39 250.1 1248.39 254.491C1248.39 258.882 1244.82 262.454 1240.42 262.454C1236.03 262.454 1232.45 258.882 1232.45 254.491ZM1233.93 254.491C1233.93 258.068 1236.84 260.981 1240.42 260.981C1244.01 260.981 1246.92 258.07 1246.92 254.491C1246.92 250.911 1244.01 248 1240.42 248C1236.84 248 1233.93 250.911 1233.93 254.491Z" fill="#3D95A9"/>
        <path d="M1181.38 240.107H1273.4V218.77H1181.38V240.107Z" fill="white"/>
        <path d="M1181.38 222.434H1279.5V220.959H1181.38V222.434Z" fill="#A1D8D2"/>
        <path d="M1181.38 225.016H1279.5V223.541H1181.38V225.016Z" fill="#A1D8D2"/>
        <path d="M1181.38 227.595H1279.5V226.12H1181.38V227.595Z" fill="#A1D8D2"/>
        <path d="M1181.38 230.177H1279.5V228.702H1181.38V230.177Z" fill="#A1D8D2"/>
        <path d="M1181.38 232.758H1279.5V231.283H1181.38V232.758Z" fill="#A1D8D2"/>
        <path d="M1181.38 235.338H1279.5V233.863H1181.38V235.338Z" fill="#A1D8D2"/>
        <path d="M1181.38 237.921H1279.5V236.446H1181.38V237.921Z" fill="#A1D8D2"/>
        <path d="M1231.48 216.903L1232.92 222.54L1232.48 237.183L1231.48 241.976H1332.2V216.903H1231.48ZM1244.42 229.44C1244.42 225.021 1248 221.438 1252.43 221.438C1256.85 221.438 1260.43 225.021 1260.43 229.44C1260.43 233.858 1256.85 237.441 1252.43 237.441C1248 237.441 1244.42 233.858 1244.42 229.44Z" fill="#51B4F2"/>
        <path d="M1232.11 221.696V237.183C1232.11 238.404 1231.12 239.396 1229.9 239.396H1178.92V241.976H1232.14C1233.51 241.976 1234.62 240.864 1234.62 239.492V219.387C1234.62 218.015 1233.51 216.903 1232.14 216.903H1178.92V219.484H1229.9C1231.12 219.484 1232.11 220.474 1232.11 221.696Z" fill="#3A82AF"/>
        <path d="M1315.82 224.155H1275.12C1274.31 224.155 1273.65 224.815 1273.65 225.63V233.248C1273.65 234.063 1274.31 234.723 1275.12 234.723H1315.82C1316.63 234.723 1317.29 234.063 1317.29 233.248V225.63C1317.29 224.815 1316.63 224.155 1315.82 224.155Z" fill="white"/>
        <path d="M1310.1 224.155H1309.21V234.725H1310.1V224.155Z" fill="#A1D8D2"/>
        <path d="M1301.59 224.155H1300.71V234.725H1301.59V224.155Z" fill="#A1D8D2"/>
        <path d="M1293.09 224.155H1292.21V234.725H1293.09V224.155Z" fill="#A1D8D2"/>
        <path d="M1284.59 224.155H1283.71V234.725H1284.59V224.155Z" fill="#A1D8D2"/>
        <path d="M1273.65 225.63V233.25C1273.65 234.064 1274.31 234.725 1275.12 234.725H1279.01V224.156H1275.12C1274.31 224.156 1273.65 224.817 1273.65 225.632V225.63Z" fill="#3A82AF"/>
        <g opacity="0.5">
            <path d="M1255.29 236.125C1255.29 236.125 1257.8 232.929 1256.42 228.702C1255.05 224.474 1248.9 223.393 1248.9 223.393C1248.9 223.393 1253.37 221.624 1255.05 222.36C1256.72 223.095 1259.37 227.325 1259.37 227.325V230.913L1257.46 234.6L1255.29 236.124V236.125Z" fill="#3D95A9"/>
        </g>
        <path d="M1244.47 229.44C1244.47 225.049 1248.04 221.476 1252.44 221.476C1256.83 221.476 1260.41 225.049 1260.41 229.44C1260.41 233.83 1256.83 237.405 1252.44 237.405C1248.04 237.405 1244.47 233.832 1244.47 229.44ZM1245.94 229.44C1245.94 233.017 1248.86 235.93 1252.44 235.93C1256.02 235.93 1258.93 233.019 1258.93 229.44C1258.93 225.86 1256.02 222.949 1252.44 222.949C1248.86 222.949 1245.94 225.86 1245.94 229.44Z" fill="#3A82AF"/>
        <path d="M1246 121.865H1327.49C1328.78 121.865 1329.83 122.913 1329.83 124.206V156.186C1329.83 157.479 1328.78 158.527 1327.49 158.527H1250.09L1243.66 165.365V158.527H1243.66V124.206C1243.66 122.913 1244.71 121.865 1246 121.865Z" fill="white"/>
        <path d="M1242.97 167.103L1242.97 124.207C1242.97 122.536 1244.33 121.176 1246 121.176H1327.49C1329.16 121.176 1330.52 122.536 1330.52 124.207V156.186C1330.52 157.857 1329.16 159.217 1327.49 159.217H1250.39L1242.97 167.103H1242.97ZM1244.35 157.838L1244.35 158.528V163.627L1249.8 157.84H1327.49C1328.4 157.84 1329.15 157.099 1329.15 156.186V124.207C1329.15 123.296 1328.4 122.553 1327.49 122.553H1246C1245.09 122.553 1244.35 123.294 1244.35 124.207V157.838Z" fill="#BBE8F2"/>
        <path d="M1320.8 134.367H1285.86C1284.9 134.367 1284.13 133.595 1284.13 132.643C1284.13 131.69 1284.9 130.918 1285.86 130.918H1320.8C1321.76 130.918 1322.53 131.69 1322.53 132.643C1322.53 133.595 1321.76 134.367 1320.8 134.367Z" fill="#A1D8D2"/>
        <path d="M1320.8 141.919H1285.86C1284.9 141.919 1284.13 141.148 1284.13 140.195C1284.13 139.243 1284.9 138.471 1285.86 138.471H1320.8C1321.76 138.471 1322.53 139.243 1322.53 140.195C1322.53 141.148 1321.76 141.919 1320.8 141.919Z" fill="#A1D8D2"/>
        <path d="M1309.56 149.474H1285.86C1284.9 149.474 1284.13 148.702 1284.13 147.75C1284.13 146.797 1284.9 146.025 1285.86 146.025H1309.56C1310.51 146.025 1311.28 146.797 1311.28 147.75C1311.28 148.702 1310.51 149.474 1309.56 149.474Z" fill="#A1D8D2"/>
        <path d="M1274.42 130.256C1272.61 128.475 1270.31 127.194 1267.74 126.627C1266.76 126.407 1265.75 126.292 1264.71 126.292C1257.12 126.292 1250.96 132.364 1250.96 139.853C1250.96 140.721 1251.05 141.567 1251.2 142.387C1252 146.539 1254.71 150.021 1258.39 151.907C1260.28 152.871 1262.43 153.42 1264.7 153.42C1267.22 153.42 1269.57 152.753 1271.6 151.595C1275.69 149.249 1278.45 144.87 1278.45 139.853C1278.45 136.103 1276.91 132.71 1274.42 130.256ZM1270.96 133.674C1272.56 135.254 1273.55 137.443 1273.55 139.853C1273.55 143.084 1271.78 145.896 1269.14 147.409C1267.83 148.159 1266.32 148.585 1264.71 148.585C1263.09 148.585 1261.44 148.119 1260.1 147.308C1258 146.046 1256.49 143.947 1256.02 141.479C1255.92 140.952 1255.86 140.408 1255.86 139.851C1255.86 135.032 1259.82 131.125 1264.71 131.125C1265.16 131.125 1265.6 131.159 1266.03 131.226C1267.94 131.504 1269.65 132.392 1270.96 133.674H1270.96Z" fill="#A1D8D2"/>
        <path d="M1278.45 139.854C1278.45 144.869 1275.69 149.248 1271.6 151.594L1269.14 147.406C1271.78 145.898 1273.55 143.081 1273.55 139.854C1273.55 137.442 1272.56 135.255 1270.96 133.673L1274.42 130.257C1276.91 132.71 1278.45 136.102 1278.45 139.852V139.854Z" fill="#33BACE"/>
        <path d="M1271.6 151.594C1269.57 152.753 1267.22 153.416 1264.71 153.416C1257.99 153.416 1252.41 148.668 1251.2 142.389L1256.02 141.479C1256.79 145.527 1260.39 148.583 1264.71 148.583C1266.32 148.583 1267.84 148.155 1269.14 147.407L1271.6 151.595L1271.6 151.594Z" fill="#3D95A9"/>
        <path d="M1281.79 172.713H1339.11C1340.02 172.713 1340.76 173.451 1340.76 174.36V196.856C1340.76 197.766 1340.02 198.503 1339.11 198.503H1284.67L1280.14 203.312V198.503H1280.14V174.36C1280.14 173.451 1280.88 172.713 1281.79 172.713Z" fill="white"/>
        <path d="M1279.66 204.534V174.358C1279.65 173.182 1280.61 172.227 1281.79 172.227H1339.11C1340.29 172.227 1341.24 173.182 1341.24 174.358V196.855C1341.24 198.031 1340.29 198.986 1339.11 198.986H1284.88L1279.66 204.534ZM1280.62 198.019V198.503L1280.62 202.09L1284.45 198.019H1339.11C1339.75 198.019 1340.27 197.496 1340.27 196.856V174.36C1340.27 173.719 1339.75 173.198 1339.11 173.198H1281.79C1281.14 173.198 1280.62 173.719 1280.62 174.36V198.019Z" fill="#BBE8F2"/>
        <path d="M1334.41 181.507H1286.5C1285.82 181.507 1285.28 180.964 1285.28 180.293C1285.28 179.623 1285.82 179.079 1286.5 179.079H1334.41C1335.08 179.079 1335.62 179.623 1335.62 180.293C1335.62 180.964 1335.08 181.507 1334.41 181.507Z" fill="#A1D8D2"/>
        <path d="M1334.41 186.821H1286.5C1285.82 186.821 1285.28 186.278 1285.28 185.607C1285.28 184.937 1285.82 184.393 1286.5 184.393H1334.41C1335.08 184.393 1335.62 184.937 1335.62 185.607C1335.62 186.278 1335.08 186.821 1334.41 186.821Z" fill="#A1D8D2"/>
        <path d="M1319.66 192.134H1286.5C1285.82 192.134 1285.28 191.59 1285.28 190.92C1285.28 190.249 1285.82 189.706 1286.5 189.706H1319.66C1320.34 189.706 1320.88 190.249 1320.88 190.92C1320.88 191.59 1320.34 192.134 1319.66 192.134Z" fill="#A1D8D2"/>
        <path d="M997.504 292.114H1158.31C1161.84 292.114 1164.89 289.616 1165.57 286.15L1183.4 202.447C1184.31 197.874 1180.81 193.616 1176.14 193.616H1015.34C1011.8 193.616 1008.76 196.114 1008.07 199.58L990.239 283.283C989.334 287.856 992.837 292.114 997.502 292.114H997.504Z" fill="#DD9978"/>
        <path d="M1115.94 83.6135V211.478H1024.82V101.413L1042.64 83.6135H1115.94Z" fill="#D6F1F2"/>
        <path d="M1116.59 212.132H1024.17V101.143L1024.36 100.952L1042.36 82.9604H1116.59V212.132H1116.59ZM1025.48 210.825H1115.28V84.2671H1042.91L1025.48 101.685V210.825Z" fill="#BBE8F2"/>
        <path d="M1025.07 101.166L1042.39 83.8614C1042.48 83.7703 1042.64 83.8339 1042.64 83.9646V101.415H1025.17C1025.05 101.415 1024.98 101.258 1025.07 101.167L1025.07 101.166Z" fill="#D6F1F2"/>
        <path d="M1043.29 102.068H1025.17C1024.85 102.068 1024.56 101.873 1024.44 101.574C1024.31 101.275 1024.38 100.933 1024.61 100.704L1041.92 83.4001C1042.08 83.2488 1042.28 83.1663 1042.49 83.1663C1042.93 83.1663 1043.29 83.5239 1043.29 83.9657V102.069V102.068ZM1026.4 100.761H1041.98V85.1915L1026.4 100.761Z" fill="#BBE8F2"/>
        <path d="M1098.34 123.139H1042.42C1040.61 123.139 1039.14 121.67 1039.14 119.858C1039.14 118.046 1040.61 116.578 1042.42 116.578H1098.34C1100.15 116.578 1101.62 118.046 1101.62 119.858C1101.62 121.67 1100.15 123.139 1098.34 123.139Z" fill="#BBE8F2"/>
        <path d="M1098.34 136.982H1042.42C1040.61 136.982 1039.14 135.514 1039.14 133.702C1039.14 131.89 1040.61 130.421 1042.42 130.421H1098.34C1100.15 130.421 1101.62 131.89 1101.62 133.702C1101.62 135.514 1100.15 136.982 1098.34 136.982Z" fill="#BBE8F2"/>
        <path d="M1098.34 150.826H1042.42C1040.61 150.826 1039.14 149.357 1039.14 147.545C1039.14 145.733 1040.61 144.265 1042.42 144.265H1098.34C1100.15 144.265 1101.62 145.733 1101.62 147.545C1101.62 149.357 1100.15 150.826 1098.34 150.826Z" fill="#BBE8F2"/>
        <path d="M1098.34 164.669H1042.42C1040.61 164.669 1039.14 163.201 1039.14 161.388C1039.14 159.576 1040.61 158.108 1042.42 158.108H1098.34C1100.15 158.108 1101.62 159.576 1101.62 161.388C1101.62 163.201 1100.15 164.669 1098.34 164.669Z" fill="#BBE8F2"/>
        <path d="M1098.34 171.953H1042.43C1040.61 171.953 1039.14 173.421 1039.14 175.233C1039.14 177.044 1040.61 178.512 1042.43 178.512H1098.34C1100.15 178.512 1101.62 177.044 1101.62 175.233C1101.62 173.421 1100.15 171.953 1098.34 171.953Z" fill="#BBE8F2"/>
        <path d="M1143.68 97.457V225.322H1052.57V115.258L1070.38 97.457H1143.68Z" fill="#F3FEFF"/>
        <path d="M1144.33 225.975H1051.92V114.986L1052.11 114.795L1070.11 96.8035H1144.33V225.975ZM1053.22 224.668H1143.03V98.1101H1070.65L1053.22 115.528V224.668Z" fill="#BBE8F2"/>
        <path d="M1053.11 114.716L1069.84 97.9965C1070.04 97.7971 1070.38 97.938 1070.38 98.22V115.256H1053.33C1053.05 115.256 1052.91 114.916 1053.11 114.716Z" fill="#F3FEFF"/>
        <path d="M1071.03 115.911H1053.33C1052.94 115.911 1052.59 115.676 1052.44 115.311C1052.29 114.949 1052.37 114.533 1052.65 114.254L1069.38 97.5344C1069.56 97.3505 1069.8 97.249 1070.06 97.249C1070.6 97.249 1071.03 97.684 1071.03 98.2204V115.91V115.911ZM1054.15 114.605H1069.72V99.0353L1054.15 114.605Z" fill="#BBE8F2"/>
        <path d="M1126.08 136.982H1070.17C1068.35 136.982 1066.88 135.514 1066.88 133.702C1066.88 131.89 1068.35 130.421 1070.17 130.421H1126.08C1127.89 130.421 1129.36 131.89 1129.36 133.702C1129.36 135.514 1127.89 136.982 1126.08 136.982Z" fill="#BBE8F2"/>
        <path d="M1126.08 150.825H1070.17C1068.35 150.825 1066.88 149.357 1066.88 147.545C1066.88 145.733 1068.35 144.264 1070.17 144.264H1126.08C1127.89 144.264 1129.36 145.733 1129.36 147.545C1129.36 149.357 1127.89 150.825 1126.08 150.825Z" fill="#BBE8F2"/>
        <path d="M1126.08 164.669H1070.17C1068.35 164.669 1066.88 163.201 1066.88 161.388C1066.88 159.576 1068.35 158.108 1070.17 158.108H1126.08C1127.89 158.108 1129.36 159.576 1129.36 161.388C1129.36 163.201 1127.89 164.669 1126.08 164.669Z" fill="#BBE8F2"/>
        <path d="M1126.08 171.953H1070.17C1068.36 171.953 1066.89 173.421 1066.89 175.233C1066.89 177.044 1068.36 178.512 1070.17 178.512H1126.08C1127.89 178.512 1129.36 177.044 1129.36 175.233C1129.36 173.421 1127.89 171.953 1126.08 171.953Z" fill="#BBE8F2"/>
        <path d="M1126.08 185.796H1070.17C1068.36 185.796 1066.89 187.265 1066.89 189.076C1066.89 190.887 1068.36 192.355 1070.17 192.355H1126.08C1127.89 192.355 1129.36 190.887 1129.36 189.076C1129.36 187.265 1127.89 185.796 1126.08 185.796Z" fill="#BBE8F2"/>
        <path d="M1242.56 202.695C1242.56 202.695 1242.48 202.244 1241.94 201.555C1241.07 200.458 1238.12 197.712 1238.12 197.712L1233.87 200.976C1233.87 200.976 1229.61 207.203 1228.86 208.936C1228.12 210.669 1229.82 213.629 1229.82 213.629L1242.56 202.696L1242.56 202.695Z" fill="#223D63"/>
        <path d="M1226.94 194.092L1229.89 197.015L1232.03 199.141L1233.88 200.976L1234.08 201.179C1234.08 201.179 1235.6 201.399 1236.97 200.223C1238.26 199.114 1238.2 197.9 1238.18 197.768C1238.18 197.759 1238.18 197.756 1238.18 197.756L1236.56 195.693L1233.63 191.979L1231.93 189.816L1226.94 194.092H1226.94Z" fill="#F6A49D"/>
        <path d="M1242.56 202.69L1229.82 213.623L1231.04 215.046L1243.78 204.113L1242.56 202.69Z" fill="#0E243F"/>
        <path d="M1229.89 197.016L1232.03 199.143C1233.24 198.211 1235.25 196.671 1236.55 195.694L1233.63 191.981L1229.89 197.016H1229.89Z" fill="#D47C74"/>
        <path d="M1182.33 124.876H1182.33C1182.44 124.886 1182.54 124.886 1182.66 124.881C1182.8 124.876 1182.95 124.855 1183.11 124.822H1183.11C1183.21 124.8 1183.3 124.778 1183.4 124.743C1183.66 124.662 1183.93 124.545 1184.21 124.399C1184.9 124.03 1185.63 123.459 1186.37 122.744C1186.86 122.269 1187.36 121.731 1187.86 121.145C1188.09 120.885 1188.31 120.614 1188.53 120.333C1189.63 118.961 1190.73 117.39 1191.77 115.779C1194.4 111.706 1196.67 107.377 1197.68 105.379V105.376C1198.05 104.666 1198.25 104.252 1198.25 104.252C1198.25 104.248 1198.25 104.246 1198.25 104.24C1198.27 104.185 1198.27 104.03 1198.25 103.803L1197.49 100.762C1196.75 98.8945 1195.45 97.0085 1193.33 97.1701L1192.26 97.7873L1192.24 97.8011C1192.24 97.8011 1188.41 100.029 1188.44 99.9914C1188.62 99.7283 1180.96 113.425 1180.56 115.054C1180.5 115.291 1180.45 115.528 1180.4 115.764C1180.39 115.796 1180.38 115.826 1180.38 115.86C1180.3 116.214 1180.23 116.57 1180.16 116.922C1179.43 120.951 1179.6 124.716 1182.32 124.872L1182.33 124.876Z" fill="#223D63"/>
        <path d="M1186.37 122.742L1184.22 124.392H1184.22L1184.21 124.398L1170.05 135.253L1166.66 131.563L1174.54 121.657L1178.25 117.342L1179.21 116.4L1179.97 115.643L1180.56 115.057V115.052L1180.72 114.909C1180.68 114.947 1180.87 115.495 1181.19 116.307C1181.36 116.745 1181.56 117.261 1181.79 117.815C1181.8 117.858 1181.82 117.897 1181.84 117.935C1181.97 118.281 1182.12 118.636 1182.27 118.992C1183.26 121.394 1186.37 122.742 1186.37 122.742Z" fill="#F6A49D"/>
        <path d="M1203.73 215.297C1203.73 215.297 1203.94 214.929 1203.98 214.119C1204.03 212.83 1203.62 209.128 1203.62 209.128L1198.67 208.86C1198.67 208.86 1189.76 210.662 1188.19 211.429C1186.62 212.195 1186.03 215.297 1186.03 215.297H1203.73H1203.73Z" fill="#223D63"/>
        <path d="M1195.61 162.24C1195.62 162.537 1195.63 162.814 1195.64 163.073C1195.67 163.952 1195.71 164.636 1195.76 165.075C1195.79 165.417 1195.84 165.915 1195.91 166.543C1196.69 173.801 1197.96 201.865 1198.44 205.869L1198.49 206.515L1198.6 207.875L1198.68 208.858V208.862L1198.69 209.128C1198.69 209.128 1199.63 210.194 1201.3 210.194C1202.97 210.194 1203.57 209.285 1203.63 209.202L1203.63 209.195L1203.64 209.03C1203.68 208.862 1203.76 208.463 1203.88 207.873C1203.96 207.493 1204.05 207.039 1204.15 206.513C1204.16 206.484 1204.17 206.45 1204.17 206.415C1204.85 203.118 1206.47 197.876 1207.61 192.261L1208.71 171.066C1207.98 168.174 1206.89 166.973 1206.76 165.805C1206.7 165.241 1206.72 164.717 1206.85 163.979C1206.86 163.967 1206.86 163.954 1206.86 163.938C1207.11 162.59 1207.74 160.539 1208.88 156.315V156.308C1209.11 155.478 1209.36 154.565 1209.62 153.559L1209.76 149.935L1209.81 150.071L1210.21 151.292C1210.27 151.018 1210.34 150.736 1210.4 150.451L1210.46 150.15C1210.65 149.275 1210.81 148.381 1210.95 147.477C1211.02 147.017 1211.09 146.557 1211.16 146.091C1211.18 145.955 1211.19 145.817 1211.21 145.682C1211.72 141.784 1211.91 137.856 1211.97 134.691C1211.98 134.015 1211.99 133.372 1211.99 132.775C1211.99 129.858 1211.89 127.949 1211.89 127.949C1211.89 127.949 1210.52 127.439 1208.6 126.902C1205.28 125.979 1200.32 124.98 1197.99 126.426C1197.93 126.464 1197.88 126.502 1197.82 126.538C1197.58 126.712 1197.38 126.909 1197.21 127.143C1197.04 127.38 1196.91 127.647 1196.82 127.951C1196.71 128.345 1196.6 128.88 1196.51 129.528C1196.41 130.176 1196.32 130.943 1196.24 131.804C1196.23 131.959 1196.21 132.112 1196.2 132.273C1196.19 132.413 1196.18 132.555 1196.16 132.698C1196.13 133.13 1196.09 133.585 1196.06 134.049C1196.04 134.305 1196.02 134.567 1196.01 134.83C1196.01 134.856 1196.01 134.883 1196 134.909C1196 134.962 1196 135.014 1196 135.064C1195.99 135.089 1195.99 135.117 1195.99 135.139C1195.49 143.495 1195.44 156.217 1195.61 162.241L1195.61 162.24Z" fill="#F6A49D"/>
        <path d="M1203.73 215.297H1186.03V217.032H1203.73V215.297Z" fill="#0E243F"/>
        <path d="M1206.85 163.983C1206.72 164.717 1206.7 165.245 1206.76 165.809C1206.91 167.098 1204.97 202.447 1204.15 206.515C1204.05 207.039 1203.96 207.495 1203.88 207.871H1198.59L1198.49 206.515L1198.44 205.868C1197.96 201.864 1196.69 173.803 1195.91 166.544C1195.84 165.915 1195.79 165.417 1195.76 165.074C1195.71 164.636 1195.67 163.952 1195.64 163.073C1195.63 162.814 1195.62 162.535 1195.61 162.239C1195.44 156.213 1195.48 143.491 1195.99 135.137C1195.99 135.112 1195.99 135.087 1196 135.062C1196 135.012 1196 134.959 1196 134.907C1196.01 134.881 1196.01 134.857 1196.01 134.831C1196.03 134.565 1196.04 134.305 1196.06 134.049L1196.16 134.054L1203.79 134.444L1208.43 134.683L1210.5 134.79C1210.5 134.79 1207.15 162.372 1206.85 163.983Z" fill="#D47C74"/>
        <path d="M1206.4 134.991C1206.43 135.272 1206.45 135.573 1206.47 135.892C1206.57 136.991 1206.7 138.308 1206.86 139.809C1206.96 140.72 1207.07 141.696 1207.18 142.731C1207.51 145.529 1207.91 148.754 1208.36 152.237V152.241C1208.53 153.564 1208.71 154.924 1208.89 156.313C1209.05 157.539 1209.22 158.782 1209.38 160.046V160.049C1209.97 164.421 1210.42 170.838 1211 175.701C1211.13 176.745 1211.56 177.728 1212.23 178.533L1229.87 199.434L1236.77 193.965L1224.13 171.106C1223.58 170.121 1223.36 168.989 1223.49 167.87C1224.01 163.429 1225.36 151.795 1225.32 150.047C1225.24 146.197 1224.94 142.42 1224.1 138.346C1224.07 138.213 1224.04 138.077 1224.01 137.945C1223.88 137.321 1223.73 136.69 1223.57 136.052C1222.98 133.699 1221.1 130.754 1220.93 130.394L1220.92 130.367L1210.58 134.764L1210.32 134.782H1210.3L1206.41 134.993L1206.4 134.991Z" fill="#223D63"/>
        <path d="M1195 172.175L1196.63 206.513H1206.87L1207.61 192.262L1208.71 171.067L1209.31 159.524L1209.63 153.56L1209.76 149.936L1209.79 149.2L1209.84 148.011L1211.21 145.683L1210.58 134.762H1210.58L1210.5 133.433L1208.42 133.328L1203.78 133.088L1196.16 132.697L1195.47 132.663C1194.59 145.814 1194.43 159.007 1195 172.176L1195 172.175Z" fill="#223D63"/>
        <path d="M1200.55 87.5231C1200.55 87.5231 1204.14 84.0073 1202.46 78.6828C1200.41 72.2168 1193.07 73.5457 1189.82 71.536C1188.67 70.8242 1187.9 70.1864 1187.4 69.6878C1187.14 69.4282 1186.7 69.6654 1186.77 70.0248C1186.96 70.948 1187.24 72.0775 1187.58 72.6793C1188.2 73.8105 1188.33 73.9807 1188.33 73.9807C1188.33 73.9807 1187.76 73.6437 1185.28 71.6443C1184.56 71.0615 1184.04 70.3652 1183.79 69.8941C1183.62 69.5657 1183.15 69.6654 1183.1 70.0316C1182.83 71.7801 1182.87 73.2311 1183.61 74.9486L1184.42 76.8261C1184.42 76.8261 1183.81 77.0031 1182.61 76.4427C1182.31 76.2432 1181.92 76.5647 1182.07 76.9C1182.57 78.0347 1183.77 79.6422 1185.59 81.1276C1188.89 83.8199 1200.55 87.5249 1200.55 87.5249V87.5231Z" fill="#172F59"/>
        <path d="M1193 97.8796C1192.07 98.7014 1192.08 100.122 1193.01 100.909C1193.03 100.924 1193.05 100.938 1193.07 100.954C1194.26 101.939 1196.78 103.196 1200.93 101.003C1202.36 100.252 1203.38 99.353 1204.1 98.4986C1205.02 97.4206 1204.58 95.7959 1203.25 95.3231C1202.66 95.1134 1202.15 94.7867 1201.91 94.381C1201.51 93.6916 1200.54 88.9912 1200.2 86.5688C1200.08 85.7556 1199.89 84.1223 1199.89 84.1223L1193.32 89.5671C1193.32 89.5671 1193.79 91.5253 1194.15 93.1191C1194.37 94.0629 1194.51 94.883 1194.55 95.0859C1194.72 96.0693 1193.86 97.1094 1192.99 97.8796H1193Z" fill="#F6A49D"/>
        <path d="M1197.67 86.3951C1198.09 86.9968 1199.5 86.7578 1200.84 85.8638C1202.17 84.9698 1202.85 83.8179 1202.5 83.156C1202.04 82.2792 1200.67 82.7933 1199.33 83.6873C1198 84.5813 1197.25 85.7933 1197.67 86.3951H1197.67Z" fill="#D47C74"/>
        <path d="M1193.32 89.5658C1193.32 89.5658 1193.79 91.524 1194.15 93.1178C1194.67 93.1831 1195.22 93.2072 1195.75 93.0576C1199.55 91.9813 1199.86 85.0803 1199.86 85.0803L1193.32 89.5641V89.5658Z" fill="#D47C74"/>
        <path d="M1200.07 81.7997C1200.09 82.0198 1200.1 82.2416 1200.1 82.4668C1200.19 87.7534 1197.49 92.1237 1194.08 92.2286C1192.16 92.2853 1190.43 90.9907 1189.26 88.9088C1189.2 88.8022 1189.14 88.6938 1189.08 88.5838C1189.03 88.4858 1188.98 88.3861 1188.93 88.2847C1188.77 87.9408 1188.62 87.5798 1188.49 87.2033C1188.4 86.9557 1188.32 86.6995 1188.25 86.4382C1188.16 86.1391 1188.09 85.833 1188.02 85.5184C1187.85 84.6726 1187.75 83.7751 1187.73 82.8433C1187.73 82.6439 1187.73 82.4221 1187.73 82.1848C1187.73 82.0868 1187.73 81.9871 1187.74 81.8822C1187.74 81.8169 1187.74 81.7499 1187.74 81.6828C1187.74 81.669 1187.74 81.6553 1187.74 81.6415C1187.78 80.6427 1187.88 79.52 1188.03 78.8151C1188.24 78.9544 1189.51 78.6105 1190.92 78.1584C1193.52 77.328 1196.39 76.489 1198.27 78.4644C1199.08 79.3103 1199.79 81.602 1200.07 81.8014L1200.07 81.7997Z" fill="#F6A49D"/>
        <path d="M1192.71 86.4709L1192.26 86.4623C1191.96 86.4571 1191.72 86.2508 1191.74 86.017L1191.92 84.2617C1191.94 84.0588 1192.16 83.9092 1192.42 83.9127C1192.68 83.9178 1192.91 84.076 1192.94 84.2788L1193.2 86.0411C1193.24 86.2749 1193.01 86.4726 1192.71 86.4674V86.4709Z" fill="#D47C74"/>
        <path d="M1196.27 82.615C1196.29 82.9761 1196.09 83.2821 1195.82 83.2993C1195.55 83.3165 1195.32 83.038 1195.3 82.6787C1195.28 82.3176 1195.48 82.0116 1195.75 81.9944C1196.02 81.9772 1196.25 82.2557 1196.27 82.615Z" fill="#4F1D30"/>
        <path d="M1194.12 81.1137C1194.12 81.1137 1194.14 81.0467 1194.2 80.9453C1194.25 80.8421 1194.35 80.7028 1194.49 80.5602C1194.56 80.4879 1194.64 80.4175 1194.74 80.3487C1194.83 80.2799 1194.94 80.218 1195.05 80.1613C1195.17 80.1097 1195.29 80.0547 1195.43 80.0272C1195.56 79.9859 1195.7 79.9739 1195.84 79.9619C1195.98 79.9481 1196.12 79.9687 1196.25 79.979C1196.39 79.9997 1196.51 80.0392 1196.64 80.0719C1196.76 80.1183 1196.87 80.1733 1196.97 80.2232C1197.07 80.2748 1197.15 80.347 1197.23 80.4037C1197.31 80.4639 1197.38 80.5206 1197.43 80.5842C1197.49 80.6427 1197.53 80.6977 1197.57 80.7424C1197.64 80.8318 1197.68 80.8885 1197.68 80.8885C1197.68 80.8885 1197.61 80.8799 1197.5 80.8576C1197.44 80.8455 1197.38 80.8335 1197.31 80.8112C1197.24 80.7888 1197.15 80.7785 1197.06 80.7613C1196.98 80.7475 1196.89 80.7166 1196.79 80.7046C1196.69 80.6925 1196.6 80.6753 1196.5 80.6599C1196.39 80.6564 1196.29 80.6444 1196.19 80.6375C1196.08 80.6461 1195.98 80.6272 1195.87 80.6427C1195.77 80.6478 1195.66 80.6547 1195.56 80.6736C1195.46 80.6839 1195.36 80.7114 1195.26 80.7286C1195.16 80.7544 1195.06 80.7768 1194.97 80.806C1194.87 80.8352 1194.78 80.861 1194.7 80.892C1194.54 80.947 1194.39 81.0054 1194.29 81.0484C1194.18 81.0914 1194.12 81.1172 1194.12 81.1172L1194.12 81.1137Z" fill="#172F59"/>
        <path d="M1189.86 83.3095C1189.9 83.6671 1189.72 83.9851 1189.45 84.0178C1189.18 84.0505 1188.93 83.7874 1188.89 83.4298C1188.84 83.0722 1189.03 82.7542 1189.29 82.7215C1189.56 82.6888 1189.81 82.9519 1189.86 83.3095Z" fill="#4F1D30"/>
        <path d="M1187.61 81.9425C1187.61 81.9425 1187.63 81.8754 1187.68 81.7705C1187.73 81.664 1187.81 81.5195 1187.94 81.3682C1188.01 81.2909 1188.09 81.217 1188.18 81.1413C1188.27 81.0674 1188.37 80.9986 1188.48 80.935C1188.6 80.8765 1188.72 80.8147 1188.85 80.7785C1188.98 80.7304 1189.12 80.7081 1189.25 80.6892C1189.39 80.6668 1189.53 80.6788 1189.67 80.6806C1189.8 80.6926 1189.93 80.7235 1190.06 80.7493C1190.18 80.7871 1190.29 80.8353 1190.4 80.88C1190.5 80.9264 1190.59 80.9917 1190.67 81.045C1190.76 81.1 1190.83 81.1533 1190.89 81.2118C1190.94 81.2651 1190.99 81.3184 1191.03 81.3614C1191.11 81.4456 1191.15 81.5006 1191.15 81.5006C1191.15 81.5006 1191.08 81.4972 1190.96 81.48C1190.91 81.4714 1190.84 81.4628 1190.77 81.4456C1190.7 81.4267 1190.61 81.4215 1190.53 81.4095C1190.44 81.4009 1190.35 81.3768 1190.25 81.37C1190.15 81.3648 1190.05 81.3528 1189.95 81.3425C1189.85 81.3459 1189.74 81.339 1189.64 81.339C1189.54 81.3545 1189.43 81.3407 1189.33 81.3631C1189.22 81.3751 1189.12 81.3872 1189.02 81.4129C1188.91 81.4284 1188.82 81.4628 1188.72 81.4869C1188.62 81.5178 1188.52 81.547 1188.43 81.5814C1188.34 81.6158 1188.25 81.6468 1188.17 81.6829C1188.01 81.7482 1187.87 81.8152 1187.77 81.8634C1187.67 81.9132 1187.61 81.9425 1187.61 81.9425H1187.61Z" fill="#172F59"/>
        <g opacity="0.5">
            <path d="M1198.48 85.2232C1198.64 86.2289 1197.96 87.1745 1196.97 87.3361C1195.97 87.4977 1195.03 86.8135 1194.87 85.806C1194.71 84.8003 1195.39 83.8547 1196.39 83.6931C1197.38 83.5315 1198.32 84.2157 1198.48 85.2232Z" fill="#D47C74"/>
        </g>
        <g opacity="0.5">
            <path d="M1190.66 86.4605C1190.82 87.4645 1190.14 88.4118 1189.14 88.5734C1189.12 88.5769 1189.1 88.5786 1189.08 88.582C1189.03 88.484 1188.98 88.3843 1188.94 88.2829C1188.77 87.939 1188.62 87.578 1188.49 87.2015C1188.4 86.9539 1188.32 86.6977 1188.25 86.4364C1188.15 86.0101 1188.07 85.5682 1188.02 85.1126C1188.18 85.0249 1188.37 84.9613 1188.57 84.9304C1189.56 84.7688 1190.5 85.453 1190.66 86.4605Z" fill="#D47C74"/>
        </g>
        <path d="M1191.12 88.7384C1191.12 88.7384 1193.59 89.249 1195.9 88.0266C1195.9 88.0266 1195.3 90.1894 1193.53 90.4525C1191.76 90.7155 1191.12 88.7384 1191.12 88.7384Z" fill="white"/>
        <path d="M1201.05 80.6253C1201.05 80.6253 1200.52 83.3022 1199.34 83.9039C1198.17 84.5039 1198.37 82.2328 1197.92 80.4448C1197.46 78.6551 1196 77.976 1193.29 79.6127C1190.58 81.2494 1187.71 79.7348 1187.71 79.7348C1187.71 79.7348 1186.59 76.4785 1186.64 76.4321C1186.69 76.384 1195.82 75.5622 1195.9 75.6207C1197.62 76.972 1200.69 77.3554 1201.02 80.3778L1201.05 80.6253H1201.05Z" fill="#172F59"/>
        <path d="M1188.44 99.9927C1188.44 99.9927 1188.46 100.08 1188.49 100.247C1188.64 101.069 1189.15 103.799 1189.86 107.207C1190.4 109.847 1191.07 112.894 1191.77 115.779C1191.8 115.916 1191.84 116.052 1191.87 116.188C1192.18 117.448 1192.5 118.67 1192.81 119.809C1193.75 123.14 1194.49 125.953 1194.71 127.201C1195.36 130.918 1195.96 137.73 1196.04 139.523C1196.06 139.757 1222.59 133.587 1222.63 133.564C1222.63 133.564 1215.73 121.901 1215.43 120.787C1214.97 119.04 1211.34 94.3003 1211.34 94.3003L1203.99 94.6923L1202.26 94.7628L1202.18 94.8762C1200.1 97.823 1197.23 98.4024 1194.01 96.7811L1193.33 97.1714L1192.26 97.7886L1192.24 97.8024L1189.11 99.6093L1188.44 99.9927Z" fill="white"/>
        <path d="M1209.34 154.888C1209.2 154.888 1209.09 154.792 1209.07 154.658L1208.44 150.891C1208 150.649 1206.51 149.784 1205.6 148.917C1204.54 147.906 1202.83 140.705 1202.63 139.888C1202.6 139.74 1202.69 139.591 1202.84 139.556C1202.99 139.52 1203.14 139.613 1203.17 139.762C1203.91 142.91 1205.27 147.839 1205.98 148.52C1206.65 149.16 1207.7 149.82 1208.32 150.186L1207 142.283C1206.98 142.132 1207.08 141.991 1207.23 141.965C1207.38 141.941 1207.52 142.042 1207.55 142.192L1209.61 154.569C1209.64 154.72 1209.54 154.861 1209.39 154.887C1209.37 154.888 1209.35 154.89 1209.34 154.89L1209.34 154.888Z" fill="#0E243F"/>
        <path d="M1221.58 140.073C1220.52 140.073 1219.28 139.9 1218.21 139.281C1215.89 137.923 1214.22 134.591 1214.15 134.45C1214.09 134.314 1214.14 134.147 1214.28 134.08C1214.42 134.013 1214.58 134.068 1214.65 134.206C1214.66 134.238 1216.31 137.531 1218.49 138.804C1220.65 140.065 1223.78 139.272 1223.81 139.264C1223.96 139.226 1224.11 139.313 1224.15 139.461C1224.19 139.609 1224.1 139.76 1223.95 139.798C1223.87 139.817 1222.86 140.073 1221.58 140.073H1221.58Z" fill="#0E243F"/>
        <path d="M1195.78 147.493C1195.66 147.493 1195.55 147.411 1195.52 147.287C1195.48 147.139 1195.56 146.99 1195.71 146.95C1195.74 146.943 1198.05 146.299 1199.39 143.431C1200.25 141.605 1199.41 137.218 1199.4 137.173C1199.37 137.023 1199.47 136.879 1199.62 136.848C1199.76 136.82 1199.91 136.917 1199.94 137.066C1199.98 137.254 1200.83 141.677 1199.9 143.666C1198.43 146.78 1195.96 147.457 1195.86 147.485C1195.83 147.492 1195.81 147.493 1195.78 147.493H1195.78Z" fill="#0E243F"/>
        <path d="M1201.03 77.8437C1200.02 77.2592 1198.92 77.2196 1199.7 77.8609C1200.48 78.5039 1200.95 79.0162 1200.41 78.9492C1199.88 78.8821 1199.25 78.5864 1199.59 79.4478C1199.92 80.3091 1200.54 81.2615 1200.05 80.8902C1199.55 80.5188 1199.74 81.6621 1200.39 81.3681C1201.12 81.038 1200.6 80.4243 1200.24 79.783C1199.87 79.1417 1200.9 79.6197 1201.06 79.3222C1201.39 78.724 1200.72 78.4386 1200.94 78.4179C1201.44 78.3732 1201.81 80.4432 1202.08 80.2438C1202.34 80.0443 1202.03 78.4248 1201.03 77.8403L1201.03 77.8437Z" fill="#0E243F"/>
        <path d="M1210.32 105.018C1211.4 105.23 1225.59 104.432 1227.24 103.954C1228.55 103.574 1229.57 103.146 1230.07 102.704C1230.07 102.704 1230.07 102.704 1230.07 102.702C1230.14 102.646 1230.19 102.587 1230.24 102.53C1230.26 102.506 1230.28 102.479 1230.3 102.45C1230.31 102.431 1230.33 102.41 1230.34 102.389C1230.37 102.331 1230.39 102.271 1230.4 102.211C1230.64 101.002 1229.63 99.0833 1226.97 97.6048C1226.33 97.2541 1225.61 96.9291 1224.78 96.6438C1224.76 96.6352 1224.73 96.6248 1224.7 96.6162C1223.98 96.3721 1223.19 96.1572 1222.33 95.9853C1221.69 95.8563 1212.97 94.3193 1211.34 94.2987C1210.01 94.2798 1206.12 94.7027 1206.12 94.7062C1206.12 94.7062 1205.24 104.028 1210.32 105.016L1210.32 105.018Z" fill="#223D63"/>
        <path d="M1230.07 102.704C1230.07 102.704 1230.07 102.704 1230.07 102.702C1230.11 102.673 1230.15 102.639 1230.18 102.601C1230.2 102.578 1230.22 102.558 1230.24 102.529C1230.26 102.505 1230.28 102.477 1230.3 102.448C1230.94 101.49 1231.88 98.0637 1232.75 94.4585C1233.92 89.6515 1234.2 83.6514 1234.2 83.6514L1230.92 82.668C1230.92 82.668 1226.21 92.2544 1224.79 96.3376C1224.77 96.3961 1224.76 96.4528 1224.74 96.5113C1224.72 96.5456 1224.71 96.5817 1224.7 96.6179C1224.43 97.4207 1224.29 98.007 1224.33 98.2563C1224.41 98.6775 1224.8 99.3377 1225.36 100.032C1225.62 100.362 1225.93 100.699 1226.25 101.021C1227.56 102.327 1229.2 103.385 1230.07 102.707L1230.07 102.704Z" fill="#F6A49D"/>
        <path d="M1230.05 82.9534C1230.05 82.9534 1228.53 80.2507 1228.28 78.9802C1228.03 77.708 1228.19 75.5486 1228.02 74.8368L1227.79 73.8861C1227.77 73.7898 1227.85 73.7004 1227.95 73.7211C1228.29 73.7933 1228.97 74.0082 1229.24 74.5996C1229.61 75.4076 1229.73 77.5274 1230.25 77.4037C1230.91 77.2438 1230.92 76.7486 1230.75 75.7721C1230.54 74.5944 1229.9 70.7605 1230.32 70.1983C1230.83 69.533 1231.15 70.568 1231.15 70.568C1231.15 70.568 1231.04 69.1496 1231.63 69.031C1232.22 68.9124 1232.43 70.188 1232.43 70.188C1232.43 70.188 1232.47 69.5863 1232.98 69.6069C1233.48 69.6276 1234.16 72.2339 1234.16 72.2339C1234.16 72.2339 1234.11 71.4414 1234.76 71.8763C1235.32 72.2494 1235.89 75.0621 1236.01 75.8701C1236.3 77.0684 1236.22 78.5573 1236.19 79.2157C1236.16 80.0616 1234.25 83.6514 1234.25 83.6514L1233.6 89.8681L1228.56 87.6125L1230.05 82.9551L1230.05 82.9534Z" fill="#F6A49D"/>
        <path d="M1166.67 131.563L1159.81 134.942C1159.81 134.942 1159.46 137.682 1161.57 138.222C1163.68 138.76 1165.24 138.956 1165.24 138.956L1170.49 134.207L1166.67 131.565V131.563Z" fill="#F6A49D"/>
        <path d="M1159.81 134.939C1159.81 134.939 1158.04 135.641 1157.26 136.848C1156.47 138.055 1155.43 141.124 1155.43 141.124C1155.43 141.124 1157.32 141.516 1158.83 140.047C1160.33 138.579 1161.11 138.087 1161.67 138.056C1162.22 138.024 1162.31 138.4 1162.31 138.4L1159.81 134.939H1159.81Z" fill="#F6A49D"/>
        <path d="M1165.31 140.178L1161.74 142.561C1161.74 142.561 1161.04 141.51 1161.74 140.701C1163.73 138.383 1162.11 137.673 1161.93 137.264C1161.75 136.855 1170.49 134.207 1170.49 134.207C1171.24 135.49 1166.55 139.354 1165.31 140.18V140.178Z" fill="#F6A49D"/>
        <path d="M1196.59 97.615V99.4546C1196.59 99.9085 1196.8 100.337 1197.16 100.612C1197.85 101.136 1198.84 100.95 1199.29 100.214L1199.38 100.068C1199.56 99.7692 1199.63 99.4133 1199.57 99.066L1199.25 97.1611L1197.19 94.8298L1196.59 97.615H1196.59Z" fill="#3A6DA0"/>
        <path d="M1194.4 94.3003L1193.33 97.1714L1197.19 99.1692V94.8298L1194.4 94.3003Z" fill="white"/>
        <path d="M1197.19 94.8297L1198.84 98.7135L1203.69 94.8297L1201.36 92.5552L1197.19 94.8297Z" fill="white"/>
        <path d="M1193.33 97.1714L1201.04 112.144L1203.99 94.6923L1211.34 94.3003L1215.43 120.787L1222.64 133.564L1209.68 138.954L1207.48 137.5L1206.86 139.808L1195.04 140.378L1194.38 125.695L1188.44 99.9927L1193.33 97.1714Z" fill="#223D63"/>
        <path d="M1187.73 102.216L1194.38 125.695L1190.34 99.1692L1188.44 99.9927L1187.73 102.216Z" fill="#223D63"/>
        <path d="M1197.19 99.6763L1197.05 104.387L1201.04 112.144L1202.28 104.803L1198.98 99.501L1197.19 99.6763Z" fill="#3A6DA0"/>
        <path d="M1186.37 122.742L1184.92 123.959L1170.57 135.992L1166 131.563L1174.54 121.657L1178.25 117.342L1180.83 114.359L1185.44 116.913L1186.37 122.742Z" fill="#223D63"/>
        <path d="M1229.75 82.7195L1234.55 83.6702C1234.55 83.6702 1232.65 102.04 1229.53 103.072C1226.4 104.103 1222.89 98.9439 1223.53 97.1611C1224.17 95.3782 1229.75 82.7195 1229.75 82.7195H1229.75Z" fill="#223D63"/>
        <path d="M1165.86 131.962L1169.45 136.504L1170.15 135.59L1166.22 131.782L1165.86 131.962Z" fill="#D47C74"/>
        <path d="M1229.95 82.7571L1229.59 82.0986L1234.55 82.9686L1234.25 83.6494L1229.95 82.7571Z" fill="#D47C74"/>
        <path d="M1195.77 140.101C1195.61 140.101 1195.49 139.977 1195.49 139.826C1195.49 139.673 1195.61 139.549 1195.76 139.549L1206.24 139.52L1207.09 137.928C1207.16 137.794 1207.32 137.742 1207.46 137.813L1209.66 138.975L1221.47 133.561C1221.61 133.497 1221.77 133.559 1221.84 133.697C1221.9 133.836 1221.84 133.999 1221.7 134.063L1209.77 139.534C1209.69 139.57 1209.6 139.566 1209.52 139.527L1207.45 138.43L1206.65 139.926C1206.6 140.015 1206.51 140.072 1206.41 140.072L1195.77 140.101H1195.77Z" fill="#0E243F"/>
        <path d="M1207.33 138.332C1207.21 138.332 1207.1 138.247 1207.06 138.12L1201.06 113.353C1201.02 113.205 1201.11 113.055 1201.26 113.019C1201.41 112.983 1201.56 113.074 1201.59 113.222L1207.6 137.99C1207.64 138.137 1207.55 138.287 1207.4 138.323C1207.38 138.328 1207.35 138.332 1207.33 138.332Z" fill="#0E243F"/>
        <path d="M1201.32 113.564C1201.26 113.564 1201.2 113.546 1201.15 113.508L1193.95 107.979C1193.83 107.888 1193.81 107.717 1193.9 107.597L1195.19 105.826L1192.93 106.098C1192.81 106.113 1192.7 106.051 1192.65 105.945L1189.61 99.7986C1189.55 99.6628 1189.6 99.496 1189.74 99.4289C1189.88 99.3602 1190.04 99.4169 1190.11 99.5544L1193.06 105.525L1195.75 105.2C1195.86 105.187 1195.96 105.24 1196.02 105.335C1196.08 105.429 1196.07 105.548 1196 105.637L1194.5 107.704L1201.24 112.877L1206.16 104.384L1204.21 103.457C1204.1 103.409 1204.04 103.306 1204.05 103.194C1204.06 103.082 1204.13 102.986 1204.23 102.948L1206.85 102.016L1207.43 95.332C1207.45 95.1807 1207.58 95.0707 1207.73 95.081C1207.89 95.0947 1208 95.2288 1207.98 95.3801L1207.38 102.24C1207.37 102.348 1207.3 102.439 1207.2 102.475L1205.05 103.244L1206.66 104.014C1206.74 104.047 1206.79 104.109 1206.81 104.181C1206.83 104.255 1206.82 104.334 1206.79 104.401L1201.56 113.425C1201.52 113.494 1201.45 113.542 1201.37 113.558C1201.36 113.561 1201.34 113.563 1201.32 113.563L1201.32 113.564Z" fill="#0E243F"/>
        <path d="M1191.45 115.621C1191.33 115.621 1191.22 115.547 1191.18 115.428L1189.09 108.893C1189.04 108.749 1189.12 108.592 1189.26 108.546C1189.41 108.498 1189.57 108.58 1189.61 108.725L1191.71 115.26C1191.76 115.404 1191.68 115.56 1191.53 115.607C1191.51 115.615 1191.48 115.621 1191.45 115.621Z" fill="#0E243F"/>
        <path d="M1212.89 104.597C1212.75 104.597 1212.64 104.499 1212.62 104.363L1211.72 98.5536C1211.69 98.4023 1211.8 98.2614 1211.95 98.239C1212.1 98.2132 1212.24 98.3181 1212.26 98.4694L1213.16 104.279C1213.18 104.43 1213.08 104.571 1212.93 104.593C1212.92 104.595 1212.9 104.597 1212.89 104.597Z" fill="#0E243F"/>
        <path d="M1165.51 121.865V249.729H1074.4V139.664L1092.21 121.865H1165.51Z" fill="white"/>
        <path d="M1166.17 250.383H1073.75V139.394L1073.94 139.203L1091.94 121.211H1166.17V250.383H1166.17ZM1075.06 249.076H1164.86V122.518H1092.49L1075.06 139.936V249.076Z" fill="#BBE8F2"/>
        <path d="M1074.7 139.369L1091.92 122.161C1092.03 122.051 1092.21 122.128 1092.21 122.283V139.664H1074.82C1074.67 139.664 1074.59 139.477 1074.7 139.369H1074.7Z" fill="white"/>
        <path d="M1092.87 140.319H1074.82C1074.48 140.319 1074.18 140.118 1074.06 139.809C1073.93 139.499 1074 139.145 1074.24 138.908L1091.45 121.7C1091.61 121.543 1091.82 121.458 1092.04 121.458C1092.5 121.458 1092.87 121.829 1092.87 122.284V140.321V140.319ZM1075.98 139.013H1091.56V123.443L1075.98 139.013Z" fill="#BBE8F2"/>
        <path d="M1147.91 161.39H1092C1090.19 161.39 1088.72 159.922 1088.72 158.11C1088.72 156.298 1090.19 154.829 1092 154.829H1147.91C1149.73 154.829 1151.2 156.298 1151.2 158.11C1151.2 159.922 1149.73 161.39 1147.91 161.39Z" fill="#BBE8F2"/>
        <path d="M1147.91 175.233H1092C1090.19 175.233 1088.72 173.765 1088.72 171.953C1088.72 170.141 1090.19 168.673 1092 168.673H1147.91C1149.73 168.673 1151.2 170.141 1151.2 171.953C1151.2 173.765 1149.73 175.233 1147.91 175.233Z" fill="#BBE8F2"/>
        <path d="M1147.91 189.077H1092C1090.19 189.077 1088.72 187.609 1088.72 185.797C1088.72 183.985 1090.19 182.516 1092 182.516H1147.91C1149.73 182.516 1151.2 183.985 1151.2 185.797C1151.2 187.609 1149.73 189.077 1147.91 189.077Z" fill="#BBE8F2"/>
        <path d="M1147.91 202.92H1092C1090.19 202.92 1088.72 201.452 1088.72 199.64C1088.72 197.828 1090.19 196.359 1092 196.359H1147.91C1149.73 196.359 1151.2 197.828 1151.2 199.64C1151.2 201.452 1149.73 202.92 1147.91 202.92Z" fill="#BBE8F2"/>
        <path d="M1147.91 216.763H1092C1090.19 216.763 1088.72 215.295 1088.72 213.483C1088.72 211.671 1090.19 210.203 1092 210.203H1147.91C1149.73 210.203 1151.2 211.671 1151.2 213.483C1151.2 215.295 1149.73 216.763 1147.91 216.763Z" fill="#BBE8F2"/>
        <path d="M1153 283.862L1154.04 287.668C1154.75 290.294 1157.14 292.116 1159.86 292.116C1162.81 292.116 1165.33 289.976 1165.81 287.06L1167.24 278.314L1153 283.862Z" fill="#DD9978"/>
        <path d="M994.99 156.788H1022.58C1026.45 156.788 1029.59 159.925 1029.59 163.79C1029.59 163.998 1029.42 164.165 1029.22 164.165H988.358C988.15 164.165 987.983 163.996 987.983 163.79C987.983 159.925 991.123 156.788 994.991 156.788H994.99Z" fill="#51B4F2"/>
        <path d="M1153.72 285.512H1008.28C1004.75 285.512 1001.7 282.839 1001.02 279.128L981.538 173.686C980.633 168.791 984.137 164.232 988.802 164.232H1134.24C1137.78 164.232 1140.82 166.905 1141.51 170.615L1160.99 276.058C1161.89 280.953 1158.39 285.512 1153.72 285.512H1153.72Z" fill="white"/>
        <path d="M1153.72 286.253H1008.28C1004.4 286.253 1001.04 283.313 1000.29 279.265L980.81 173.822C980.317 171.15 981.008 168.449 982.707 166.41C984.25 164.557 986.472 163.495 988.802 163.495H1134.24C1138.12 163.495 1141.49 166.435 1142.23 170.483L1161.71 275.926C1162.21 278.597 1161.52 281.298 1159.82 283.337C1158.27 285.191 1156.05 286.253 1153.72 286.253H1153.72ZM988.802 164.975C986.885 164.975 985.124 165.821 983.844 167.356C982.428 169.056 981.853 171.315 982.266 173.554L1001.75 278.996C1002.36 282.344 1005.11 284.775 1008.28 284.775H1153.72C1155.64 284.775 1157.4 283.929 1158.68 282.394C1160.09 280.693 1160.67 278.434 1160.26 276.196L1140.78 170.753C1140.16 167.406 1137.41 164.975 1134.24 164.975H988.802Z" fill="#BBE8F2"/>
        <path d="M1003.38 162.982H975.784C971.913 162.982 968.776 166.118 968.776 169.985C968.776 170.193 968.944 170.359 969.151 170.359H1010.01C1010.22 170.359 1010.39 170.191 1010.39 169.985C1010.39 166.116 1007.25 162.982 1003.38 162.982H1003.38Z" fill="#E96362"/>
        <path d="M1149.88 290.611H989.077C985.541 290.611 982.499 287.938 981.814 284.228L962.333 179.882C961.428 174.988 964.932 170.428 969.597 170.428H1130.4C1133.94 170.428 1136.98 173.102 1137.66 176.812L1157.14 281.157C1158.05 286.052 1154.55 290.611 1149.88 290.611Z" fill="white"/>
        <path d="M1149.88 291.35H989.077C985.195 291.35 981.833 288.411 981.086 284.362L961.607 180.018C961.113 177.344 961.805 174.644 963.503 172.605C965.047 170.751 967.268 169.689 969.598 169.689H1130.4C1134.28 169.689 1137.65 172.629 1138.39 176.677L1157.87 281.021C1158.37 283.693 1157.68 286.396 1155.98 288.435C1154.43 290.288 1152.21 291.35 1149.88 291.35H1149.88ZM969.597 171.169C967.68 171.169 965.919 172.015 964.639 173.55C963.223 175.25 962.648 177.51 963.061 179.748L982.54 284.092C983.16 287.441 985.908 289.87 989.075 289.87H1149.88C1151.8 289.87 1153.56 289.024 1154.84 287.487C1156.25 285.787 1156.83 283.528 1156.41 281.291L1136.94 176.947C1136.32 173.598 1133.57 171.169 1130.4 171.169H969.597Z" fill="#BBE8F2"/>
        <path d="M1159.85 292.114H1144.41L1150.58 284.131H1153.08L1154.04 287.668C1154.75 290.288 1157.13 292.114 1159.85 292.114Z" fill="#EDB572"/>
        <path d="M1145.6 292.114H984.792C981.256 292.114 978.214 289.616 977.529 286.15L958.049 187.644C957.144 183.071 960.647 178.813 965.312 178.813H1126.12C1129.65 178.813 1132.69 181.311 1133.38 184.777L1152.86 283.282C1153.76 287.855 1150.26 292.114 1145.6 292.114Z" fill="#EDB572"/>
        <path d="M1079.14 179.867L1082.39 181.197L1083.42 179.208C1083.42 179.208 1084.15 178.995 1084.75 178.33C1085.63 177.37 1088.95 171.54 1089.66 170.358C1090.37 169.175 1090.02 168.717 1089.65 168.75C1089.28 168.783 1087.59 171.173 1087.59 171.173L1087.4 170.896C1087.4 170.896 1088.43 169.018 1089.18 167.865C1089.94 166.711 1089.3 165.898 1088.72 166.419C1088.15 166.94 1086.08 170.249 1086.08 170.249L1085.76 170.16C1085.76 170.16 1087.41 166.874 1087.86 165.893C1088.31 164.909 1087.62 164.031 1086.91 165.248C1086.2 166.467 1084.33 169.828 1084.33 169.828L1082.75 168.458C1082.63 168.351 1082.48 168.283 1082.32 168.26L1081.18 168.099C1080.85 168.052 1080.53 168.2 1080.35 168.479L1079.72 169.452C1079.63 169.364 1079.53 169.297 1079.45 169.247C1079.28 169.154 1079.08 169.271 1079.07 169.458C1079.05 170.227 1079.01 172.084 1079.13 173.509C1079.3 175.349 1079.87 177.479 1079.87 177.479L1079.14 179.868V179.867ZM1081.19 172.209C1080.43 172.029 1080.29 171.307 1080.13 170.289C1080.11 170.131 1080.07 169.993 1080.01 169.875C1080.16 169.899 1080.33 169.9 1080.48 169.849C1080.9 169.708 1081.09 169.311 1081.09 169.311C1081.09 169.311 1082.71 169.452 1082.57 170.975C1082.47 172.151 1081.78 172.352 1081.19 172.209Z" fill="#F6A49D"/>
        <path d="M1082.44 176.822C1082.44 176.822 1082.43 176.822 1082.42 176.818C1082.35 176.801 1082.31 176.731 1082.32 176.662C1082.34 176.615 1082.63 175.505 1083.51 174.705C1084.39 173.902 1086.29 173.072 1086.37 173.038C1086.44 173.01 1086.51 173.038 1086.54 173.105C1086.57 173.17 1086.54 173.246 1086.47 173.273C1086.45 173.282 1084.53 174.123 1083.68 174.896C1082.86 175.642 1082.58 176.717 1082.57 176.727C1082.56 176.787 1082.5 176.827 1082.44 176.823L1082.44 176.822Z" fill="#D47C74"/>
        <path d="M1081.75 176.925C1081.74 176.925 1081.73 176.922 1081.72 176.918C1081.65 176.896 1081.62 176.822 1081.64 176.755C1081.64 176.748 1081.86 176.081 1081.92 175.015C1081.97 173.98 1081.17 173.064 1081.16 173.055C1081.11 173.002 1081.12 172.921 1081.17 172.874C1081.22 172.828 1081.31 172.833 1081.35 172.886C1081.39 172.928 1082.23 173.89 1082.17 175.029C1082.12 176.132 1081.89 176.81 1081.88 176.837C1081.86 176.894 1081.81 176.928 1081.75 176.925H1081.75Z" fill="#D47C74"/>
        <path d="M1050.89 167.894C1056.74 167.894 1061.48 163.154 1061.48 157.307C1061.48 151.46 1056.74 146.72 1050.89 146.72C1045.04 146.72 1040.29 151.46 1040.29 157.307C1040.29 163.154 1045.04 167.894 1050.89 167.894Z" fill="#91415C"/>
        <path d="M1040.33 158.105C1040.33 158.105 1040.6 164.593 1039.43 166.213C1038.27 167.832 1032.78 169.183 1034.04 172.844C1035.3 176.504 1036.35 180.475 1034.04 181.992C1031.73 183.508 1028.29 184.734 1029.36 188.931C1030.43 193.127 1036.94 190.33 1037.49 193.034C1038.03 195.739 1040.64 200.963 1043.73 199.894C1046.83 198.825 1049.48 194.351 1052.43 194.688C1055.39 195.025 1057.7 197.96 1061.3 197.68C1064.91 197.399 1068.44 190.086 1066.19 186.262C1063.94 182.439 1067.34 182.052 1067.54 178.861C1067.75 175.67 1065.28 174.932 1063.48 172.926C1061.69 170.92 1064.72 168.913 1063.48 166.402C1062.25 163.89 1061.08 162.477 1061.03 160.403C1060.97 158.33 1061.31 156.487 1061.31 156.487L1040.33 158.103L1040.33 158.105Z" fill="#91415C"/>
        <path d="M1050.01 162.082C1049.79 162.831 1048.31 163.058 1046.7 162.589C1045.08 162.12 1044.04 161.17 1044.17 160.383C1044.35 159.338 1045.87 159.407 1047.48 159.876C1049.1 160.345 1050.23 161.332 1050.01 162.082Z" fill="#D47C74"/>
        <path d="M1058.49 173.191C1058.49 173.191 1058.42 174.389 1057.4 175.672C1056.37 176.954 1054.39 180.253 1049.7 178.825C1045.02 177.396 1044.3 173.315 1044.3 173.315C1045.22 173.081 1046.96 172.613 1047.38 172.079C1047.92 171.411 1047.72 166.133 1047.59 163.52C1047.54 162.642 1047.51 162.066 1047.51 162.066L1055.24 165.224C1055.24 165.224 1055.14 167.38 1055.09 169.128C1055.06 170.165 1055.04 171.057 1055.07 171.276C1055.29 172.742 1058.49 173.193 1058.49 173.193V173.191Z" fill="#F6A49D"/>
        <path d="M1055.23 165.222C1055.23 165.222 1055.14 167.378 1055.08 169.127C1054.56 169.304 1054.01 169.445 1053.44 169.398C1049.32 169.066 1047.5 162.064 1047.5 162.064L1055.23 165.222H1055.23Z" fill="#D47C74"/>
        <path d="M1046.51 157.517C1046.56 158.124 1046.64 158.782 1046.69 159.441C1047.17 164.64 1050.23 168.608 1053.83 168.283C1056.53 168.038 1058.53 165.76 1059.15 162.429C1059.17 162.334 1059.18 162.236 1059.2 162.138C1059.32 161.382 1059.37 160.568 1059.35 159.717C1059.35 159.597 1059.34 159.478 1059.33 159.355C1059.32 159.184 1059.31 159.012 1059.3 158.842C1059.18 157.603 1058.97 155.909 1058.73 154.737C1058.63 154.216 1058.09 153.912 1057.59 154.095C1057.22 154.228 1056.78 154.386 1056.26 154.561C1054.35 155.208 1050.98 154.938 1048.64 155.07C1047.36 155.142 1046.39 156.246 1046.51 157.517H1046.51Z" fill="#F6A49D"/>
        <path d="M1047.53 162.245C1048.14 163.041 1047.33 164.015 1046.44 163.556C1046.38 163.524 1046.32 163.474 1046.28 163.417C1045.67 162.621 1046.48 161.646 1047.37 162.109C1047.43 162.14 1047.49 162.188 1047.53 162.243L1047.53 162.245Z" fill="#D3F2F4"/>
        <path d="M1047.51 162.243C1047.94 162.804 1047.37 163.488 1046.74 163.168C1046.69 163.144 1046.65 163.108 1046.62 163.067C1046.19 162.506 1046.76 161.822 1047.39 162.142C1047.43 162.166 1047.48 162.202 1047.51 162.243Z" fill="white"/>
        <path d="M1052.69 164.339C1052.69 164.339 1054.65 163.6 1055.03 163.742L1055.41 163.885C1055.41 163.885 1055.61 163.636 1055.79 163.588C1055.96 163.541 1057.18 163.593 1057.18 163.593C1057.18 163.593 1057.39 164.483 1056.9 165.273C1056.87 165.316 1056.86 165.331 1056.83 165.362C1056.19 166.186 1055.02 166.473 1054.08 166.02C1053.89 165.929 1053.63 165.723 1053.5 165.592C1052.92 165.03 1052.69 164.339 1052.69 164.339H1052.69Z" fill="#E96362"/>
        <path d="M1057.18 163.593C1057.18 163.593 1055.44 164.767 1052.69 164.339C1052.69 164.339 1053.59 165.977 1055.47 165.666C1057.07 165.399 1057.18 163.593 1057.18 163.593Z" fill="white"/>
        <path d="M1055.15 162.03L1055.47 161.942C1055.7 161.882 1055.84 161.705 1055.77 161.56L1055.31 160.464C1055.26 160.336 1055.07 160.28 1054.87 160.331C1054.68 160.383 1054.54 160.527 1054.56 160.663L1054.7 161.848C1054.71 162.004 1054.92 162.09 1055.15 162.03Z" fill="#D47C74"/>
        <path d="M1050.78 159.439C1050.84 159.782 1051.09 160.027 1051.34 159.985C1051.59 159.944 1051.75 159.633 1051.69 159.289C1051.64 158.945 1051.39 158.701 1051.14 158.742C1050.89 158.784 1050.73 159.095 1050.78 159.439Z" fill="#4F1D30"/>
        <path d="M1052.45 157.567C1052.45 157.567 1052.42 157.508 1052.35 157.424C1052.27 157.34 1052.16 157.228 1052 157.125C1051.92 157.071 1051.83 157.023 1051.73 156.979C1051.63 156.934 1051.51 156.898 1051.4 156.869C1051.28 156.846 1051.15 156.819 1051.03 156.822C1050.9 156.812 1050.77 156.829 1050.64 156.848C1050.51 156.865 1050.38 156.913 1050.26 156.953C1050.14 157.001 1050.03 157.065 1049.93 157.123C1049.83 157.192 1049.74 157.267 1049.65 157.336C1049.57 157.407 1049.51 157.493 1049.45 157.563C1049.39 157.635 1049.34 157.704 1049.3 157.775C1049.26 157.84 1049.23 157.902 1049.21 157.952C1049.16 158.051 1049.14 158.112 1049.14 158.112C1049.14 158.112 1049.21 158.089 1049.3 158.045C1049.35 158.022 1049.4 157.995 1049.47 157.96C1049.53 157.924 1049.6 157.897 1049.68 157.862C1049.76 157.83 1049.83 157.783 1049.92 157.751C1050 157.72 1050.09 157.682 1050.18 157.644C1050.27 157.618 1050.37 157.586 1050.46 157.556C1050.56 157.543 1050.65 157.501 1050.75 157.494C1050.85 157.477 1050.94 157.462 1051.04 157.457C1051.14 157.443 1051.24 157.448 1051.33 157.443C1051.43 157.446 1051.52 157.446 1051.61 157.453C1051.7 157.46 1051.79 157.467 1051.87 157.477C1052.04 157.494 1052.18 157.518 1052.28 157.536C1052.39 157.555 1052.45 157.565 1052.45 157.565L1052.45 157.567Z" fill="#7A374E"/>
        <path d="M1056.84 158.352C1056.9 158.696 1057.15 158.94 1057.4 158.899C1057.65 158.858 1057.81 158.546 1057.75 158.203C1057.7 157.859 1057.45 157.615 1057.2 157.656C1056.95 157.697 1056.79 158.008 1056.84 158.352Z" fill="#4F1D30"/>
        <path d="M1058.51 156.48C1058.51 156.48 1058.48 156.421 1058.41 156.337C1058.33 156.253 1058.22 156.141 1058.06 156.038C1057.98 155.985 1057.89 155.937 1057.79 155.892C1057.69 155.847 1057.57 155.811 1057.46 155.782C1057.34 155.76 1057.22 155.732 1057.09 155.736C1056.96 155.725 1056.83 155.742 1056.7 155.761C1056.57 155.778 1056.44 155.827 1056.32 155.866C1056.2 155.914 1056.09 155.978 1055.99 156.036C1055.89 156.105 1055.8 156.181 1055.71 156.25C1055.63 156.32 1055.57 156.406 1055.51 156.477C1055.45 156.549 1055.4 156.617 1055.36 156.688C1055.32 156.753 1055.29 156.815 1055.27 156.865C1055.22 156.965 1055.2 157.025 1055.2 157.025C1055.2 157.025 1055.27 157.003 1055.36 156.958C1055.41 156.936 1055.47 156.908 1055.53 156.874C1055.59 156.838 1055.66 156.81 1055.74 156.776C1055.82 156.743 1055.89 156.697 1055.98 156.664C1056.06 156.633 1056.15 156.595 1056.24 156.557C1056.33 156.532 1056.43 156.499 1056.52 156.47C1056.62 156.456 1056.71 156.415 1056.81 156.408C1056.91 156.391 1057 156.375 1057.1 156.37C1057.2 156.356 1057.3 156.361 1057.39 156.356C1057.49 156.36 1057.58 156.36 1057.67 156.366C1057.76 156.373 1057.85 156.38 1057.93 156.391C1058.1 156.408 1058.24 156.432 1058.34 156.449C1058.45 156.468 1058.51 156.478 1058.51 156.478L1058.51 156.48Z" fill="#7A374E"/>
        <g opacity="0.5">
            <path d="M1049.69 162.607C1049.87 163.367 1050.61 163.843 1051.35 163.668C1052.08 163.494 1052.54 162.736 1052.36 161.975C1052.18 161.215 1051.44 160.738 1050.7 160.914C1049.97 161.087 1049.51 161.846 1049.69 162.607Z" fill="#D47C74"/>
        </g>
        <g opacity="0.5">
            <path d="M1057.73 161.05C1057.89 161.746 1058.52 162.205 1059.2 162.14C1059.32 161.383 1059.37 160.57 1059.35 159.719C1059.35 159.599 1059.34 159.48 1059.33 159.356C1059.15 159.31 1058.94 159.31 1058.74 159.356C1058.01 159.531 1057.55 160.288 1057.73 161.05H1057.73Z" fill="#D47C74"/>
        </g>
        <path d="M1072.38 198.636C1068.47 200.073 1064.32 193.07 1061.98 188.662C1061.9 188.521 1061.83 188.384 1061.76 188.25C1059.46 183.881 1060.91 173.313 1060.91 173.313C1060.91 173.313 1064.22 175.417 1068.28 182.633C1070.94 187.349 1073.03 192.311 1073.4 195.46C1073.6 197.131 1073.32 198.29 1072.38 198.637L1072.38 198.636Z" fill="#F9CEE1"/>
        <path d="M1072.38 198.636C1068.47 200.073 1064.32 193.071 1061.98 188.662C1062.32 184.449 1062.86 179.195 1062.86 179.195C1062.86 179.195 1063.91 182.698 1065.3 186.864C1066.68 191.03 1070.46 189.606 1072.66 193.923C1072.94 194.467 1073.18 194.981 1073.4 195.46C1073.6 197.131 1073.32 198.29 1072.38 198.637L1072.38 198.636Z" fill="#E5B3CB"/>
        <path d="M1038.51 186.904C1038.62 187.461 1038.76 187.985 1038.94 188.453C1039.01 188.662 1039.1 188.86 1039.18 189.058C1039.78 190.44 1040.55 191.595 1041.35 192.596C1041.55 192.857 1041.76 193.108 1041.97 193.352C1043.19 194.834 1044.35 195.995 1044.72 197.173C1045.01 198.091 1045.07 199.892 1045.03 201.698C1045.02 202.15 1045 202.6 1044.98 203.039C1044.97 203.297 1044.96 203.554 1044.94 203.8C1044.93 204.077 1044.91 204.344 1044.9 204.596C1044.86 205.234 1044.82 205.786 1044.78 206.181L1061.3 206.092L1061.04 198.897L1063.15 189.168L1063.24 188.404C1063.28 188.3 1063.33 188.195 1063.36 188.092C1063.38 188.043 1063.4 187.999 1063.41 187.951C1063.44 187.889 1063.46 187.829 1063.48 187.768C1064.68 184.447 1064.75 182.291 1063.34 179L1061.47 174.632L1060.91 173.313L1058.87 172.93L1055.64 172.324C1055.62 172.335 1055.61 172.342 1055.6 172.352C1053.57 173.963 1050.42 174.131 1048.13 172.928C1047.89 172.801 1047.68 172.685 1047.52 172.577L1047.13 172.324L1043.57 173.533L1041.32 174.296L1038.6 175.218C1038.6 175.218 1038.25 177.608 1038.15 180.511C1038.06 182.612 1038.11 184.973 1038.5 186.905L1038.51 186.904Z" fill="#F6A49D"/>
        <path d="M1070.53 198.206C1070.53 198.206 1071.73 199.975 1074.76 197.671C1075.64 197.009 1076.77 195.232 1077.95 193.034C1078.03 192.887 1078.11 192.735 1078.19 192.582C1078.38 192.206 1078.58 191.821 1078.77 191.425C1080.05 188.836 1083.63 178.942 1083.63 178.942L1079.91 177.317C1079.91 177.317 1079.88 177.355 1079.82 177.427C1079.33 178.005 1077.05 180.726 1074.76 183.584C1073.47 185.196 1072.18 186.85 1071.21 188.19C1070.54 189.109 1070.02 189.878 1069.76 190.38C1069.27 191.338 1069 192.395 1068.86 193.356C1068.61 195.146 1069.23 196.946 1070.53 198.204L1070.53 198.206Z" fill="#F6A49D"/>
        <path d="M1047.7 216.665C1047.78 219.968 1048.07 223.43 1048.82 226.025C1049.85 229.616 1051.8 234.848 1053.42 239.036V239.041C1053.42 239.041 1053.42 239.046 1053.42 239.05V239.055C1054.92 242.911 1056.14 245.87 1056.14 245.87C1056.61 247.232 1056.47 246.277 1056.42 247.479C1056.42 247.515 1056.42 247.553 1056.42 247.589C1056.31 249.553 1055.55 251.772 1054.84 254.193C1054.1 256.682 1053.41 259.385 1053.52 262.246C1053.74 267.538 1056.42 274.119 1056.42 278.494V278.613C1056.41 278.902 1056.4 279.168 1056.37 279.421C1056.33 279.723 1056.29 280.004 1056.24 280.26C1056.23 280.274 1056.23 280.293 1056.23 280.306C1056.23 280.306 1056.23 280.311 1056.23 280.32V280.342C1056.23 280.342 1056.23 280.348 1056.23 280.351C1056.21 280.439 1056.19 280.525 1056.17 280.604C1055.97 281.549 1055.72 282.168 1055.52 282.65V282.655C1055.41 283.048 1055.31 283.447 1055.23 283.82V283.826C1055.26 284.216 1055.45 284.646 1055.92 285.302C1056.32 285.871 1056.36 283.49 1056.99 284.013C1057.07 284.073 1057.13 284.132 1057.21 284.192C1058.16 284.953 1059.24 285.65 1060.15 286.227H1060.16C1060.98 286.755 1062.65 290.381 1063 290.689C1063.14 290.804 1063.34 290.914 1063.6 291.019L1069.36 291.014C1069.19 290.441 1068.87 289.922 1068.46 289.418C1067.68 288.486 1067.03 287.62 1065.89 286.607C1064.34 285.222 1061.57 281.912 1060.86 280.32C1060.85 280.315 1060.85 280.311 1060.85 280.306C1060.85 280.301 1060.84 280.298 1060.84 280.293C1060.57 279.687 1063.43 262.311 1065.21 253.772C1065.46 252.556 1065.68 251.392 1065.85 250.304C1065.92 249.473 1066.01 248.547 1066.09 247.589C1066.12 247.195 1066.15 246.791 1066.19 246.387C1066.18 246.126 1066.17 245.901 1066.18 245.727C1066.19 245.224 1066.07 244.507 1065.98 243.829L1061.95 208.461L1061.69 206.205V206.183H1048.06C1048.06 206.183 1048.05 206.326 1048.03 206.591C1048 206.962 1047.95 207.572 1047.9 208.361C1047.78 210.333 1047.63 213.425 1047.7 216.667L1047.7 216.665Z" fill="#F6A49D"/>
        <path d="M1041.02 278.135V278.305C1041.02 278.589 1041 278.86 1040.97 279.108C1040.94 279.388 1040.9 279.644 1040.85 279.883C1040.85 279.883 1040.85 279.888 1040.85 279.897C1040.83 280.035 1040.8 280.167 1040.77 280.296C1040.57 281.255 1040.32 281.874 1040.12 282.359C1040.02 282.711 1039.94 283.066 1039.87 283.396V283.401C1039.86 283.447 1039.85 283.489 1039.84 283.533C1039.87 283.918 1040.06 284.345 1040.52 284.991C1040.92 285.555 1041.96 283.06 1042.59 283.583L1042.6 283.588C1042.67 283.648 1042.74 283.707 1042.81 283.767C1043.76 284.524 1045.32 289.389 1046.24 289.972C1047.06 290.494 1047.76 290.931 1048.11 291.237C1048.25 291.352 1048.45 291.462 1048.7 291.567H1048.8L1053.32 291.562H1054.47C1054.3 290.99 1053.98 290.47 1053.57 289.967C1052.79 289.035 1051.61 287.379 1050.47 286.365C1048.92 284.979 1046.64 281.546 1045.64 279.978C1045.63 279.964 1045.62 279.95 1045.61 279.931C1045.24 279.343 1049.27 263.047 1051.52 254.502C1051.53 254.452 1051.55 254.397 1051.56 254.342C1052.22 251.848 1052.73 249.535 1052.95 247.587C1052.99 247.293 1053.02 247.01 1053.04 246.73C1053.09 246.001 1053.02 245.322 1053.03 244.928L1053.42 239.053V239.034L1053.62 235.976L1055.47 208.358L1055.54 207.161L1055.61 206.18H1045.22C1045.22 206.18 1045.21 206.18 1045.21 206.188C1045.02 206.389 1041.91 209.766 1039.86 217.148C1039.48 218.493 1039.35 220.135 1039.37 221.928C1039.37 222.451 1039.4 222.987 1039.43 223.537C1039.64 227.261 1040.43 231.411 1041.22 234.824C1041.67 236.301 1042.11 237.681 1042.46 238.873C1042.5 238.988 1042.53 239.101 1042.56 239.217C1042.87 240.267 1043.12 241.161 1043.25 241.826H1043.24C1043.25 241.845 1043.25 241.859 1043.26 241.876C1043.31 242.115 1042.6 244.472 1041.74 247.586C1041.37 248.939 1040.96 250.435 1040.58 251.961C1040.53 252.14 1040.49 252.324 1040.45 252.506C1040.39 252.735 1040.33 252.969 1040.28 253.199C1039.46 256.626 1039.66 259.883 1039.75 262.072C1039.95 267.336 1041.02 273.722 1041.02 278.133L1041.02 278.135Z" fill="#F6A49D"/>
        <path d="M1021.4 226.261C1021.4 226.261 1020.73 227.029 1021.33 227.44C1021.89 227.82 1022.88 227.211 1022.88 227.211C1022.88 227.211 1023.24 227.715 1024.12 227.428C1025.06 227.124 1028.33 224.125 1029.13 224.239C1029.93 224.352 1028.79 225.535 1028.56 226.259C1028.33 226.983 1028.56 227.973 1028.56 227.973C1028.56 227.973 1030.47 225.764 1031.38 223.745C1032.14 222.078 1032.87 218.696 1033.1 217.57C1033.15 217.331 1033.17 217.193 1033.17 217.193L1028.98 215.897C1028.98 215.897 1028.86 216.114 1028.66 216.437H1028.66C1028.22 217.142 1027.39 218.345 1026.58 218.868C1025.4 219.629 1021.51 222.714 1021.36 223.171C1021.2 223.627 1021.44 224.209 1021.44 224.209C1021.44 224.209 1020.92 224.699 1020.84 225.171C1020.76 225.619 1021.39 226.257 1021.39 226.257L1021.4 226.261Z" fill="#F6A49D"/>
        <path d="M1038.6 175.216C1038.6 175.216 1036.03 178.178 1034.2 186.254C1032.37 194.329 1032.03 202.15 1034.85 202.758C1037.67 203.367 1041.11 194.614 1042.06 189.775C1043.01 184.933 1038.6 175.218 1038.6 175.218V175.216Z" fill="#F9CEE1"/>
        <path d="M1028.66 216.438H1028.66L1033.1 217.569C1033.1 217.569 1035.45 212.346 1037.26 207.873C1037.97 206.112 1038.6 204.469 1038.97 203.303C1039.11 202.87 1039.21 202.506 1039.26 202.225C1039.33 201.907 1039.37 201.587 1039.4 201.269C1039.41 201.094 1039.41 200.919 1039.42 200.747C1039.45 198.281 1038.51 196.055 1038.51 196.055L1036.38 194.913C1036.38 194.913 1034.74 193.541 1032.45 196.59C1032.17 196.958 1031.91 197.527 1031.66 198.24C1030.85 200.532 1030.17 204.335 1029.66 207.875C1029.02 212.37 1028.66 216.44 1028.66 216.44L1028.66 216.438Z" fill="#F6A49D"/>
        <path d="M1033.93 199.138L1038.97 203.303C1039.11 202.87 1039.21 202.506 1039.26 202.225C1039.33 201.907 1039.37 201.588 1039.39 201.27L1039.49 200.768L1039.42 200.747L1033.94 199.141H1033.93L1033.93 199.138Z" fill="#D47C74"/>
        <path d="M1031.66 198.238L1033.94 199.137L1033.95 199.141L1039.39 201.288L1039.4 201.269L1039.49 200.767L1040.53 195.054L1034.42 193.768L1033 193.306L1031.66 198.238Z" fill="#F9CEE1"/>
        <path d="M1038.51 186.904C1038.62 187.461 1038.76 187.985 1038.94 188.453C1039.01 188.662 1039.1 188.86 1039.18 189.058C1039.78 190.44 1040.55 191.595 1041.35 192.596C1041.55 192.857 1041.76 193.108 1041.97 193.352C1043.19 194.834 1044.35 195.995 1044.72 197.173C1045.01 198.091 1045.07 199.892 1045.03 201.698C1045.02 202.15 1045 202.6 1044.98 203.039C1044.97 203.297 1044.96 203.554 1044.94 203.8C1044.93 204.077 1044.91 204.344 1044.9 204.596C1044.86 205.234 1044.82 205.786 1044.78 206.181H1061.69L1061.72 206.09H1061.3L1061.15 201.871C1061.07 199.896 1061.25 197.921 1061.67 195.988L1063.15 189.166L1063.24 188.403C1063.28 188.298 1063.33 188.193 1063.36 188.09C1063.38 188.042 1063.4 187.997 1063.41 187.949C1063.44 187.887 1063.46 187.827 1063.48 187.767C1064.68 184.445 1064.75 182.289 1063.34 178.999L1061.47 174.63L1060.91 173.311L1058.87 172.928C1058.87 172.928 1058.62 175.944 1054.94 177.24C1054.91 177.25 1054.89 177.26 1054.86 177.269C1054.06 177.541 1053.1 177.733 1051.95 177.799C1050.36 177.89 1049.04 177.682 1047.97 177.317C1047.96 177.315 1047.95 177.31 1047.94 177.309C1044.61 176.169 1043.57 173.531 1043.57 173.531L1041.32 174.295L1038.6 175.216C1038.6 175.216 1038.25 177.606 1038.15 180.51C1038.07 182.611 1038.11 184.971 1038.5 186.904H1038.51Z" fill="#F9CEE1"/>
        <path d="M1047.27 196.512C1047.15 199 1046.05 199.865 1046.35 201.692C1046.56 203.014 1045.5 204.097 1044.9 204.594C1044.91 204.342 1044.93 204.075 1044.94 203.798C1044.96 203.551 1044.97 203.296 1044.98 203.038C1045.08 200.851 1045.09 198.321 1044.72 197.171C1044.35 195.993 1043.19 194.832 1041.97 193.35C1041.76 193.108 1041.55 192.857 1041.35 192.594C1041.35 192.594 1042.14 190.223 1042.16 189.001C1042.18 187.78 1042.19 186.862 1042.19 186.862C1042.19 186.862 1042.88 190.111 1044.2 191.738C1045.53 193.362 1047.38 194.023 1047.27 196.51V196.512Z" fill="#E5B3CB"/>
        <g style="mix-blend-mode:lighten">
            <path d="M1041.66 157.41C1041.61 157.503 1041.47 157.448 1041.49 157.346C1041.49 157.346 1041.52 156.076 1041.72 155.397C1042.1 154.049 1042.8 152.868 1042.84 153.547C1042.93 154.898 1042.28 155.57 1043.04 155.325C1043.81 155.079 1044.01 154.025 1044.28 154.898C1044.55 155.772 1044.41 156.064 1045.04 155.885C1045.67 155.706 1046.28 154.496 1046.11 155.414C1045.94 156.334 1046.5 156.903 1046.9 156.36C1047.31 155.816 1047.13 157.441 1046.36 156.999C1045.88 156.719 1045.76 156.372 1045.73 156.157C1045.72 156.086 1045.64 156.055 1045.58 156.103C1045.4 156.267 1045.05 156.501 1044.61 156.471C1044.17 156.442 1043.99 155.992 1043.93 155.687C1043.91 155.608 1043.81 155.589 1043.76 155.658C1043.62 155.894 1043.34 156.203 1042.89 156.133C1042.47 156.067 1041.98 156.796 1041.66 157.41Z" fill="#C22E22"/>
        </g>
        <g style="mix-blend-mode:lighten">
            <path d="M1058.79 151.716C1058.79 151.716 1057.55 149.905 1056.59 149.639C1055.64 149.372 1056.46 150.268 1057.09 150.677C1057.72 151.086 1056.75 151.392 1056.33 150.992C1055.91 150.591 1055.87 151.602 1056.5 152.231C1057.13 152.861 1055.76 152.594 1055.93 152.993C1056.1 153.394 1057.02 153.507 1057.35 152.993C1057.68 152.479 1056.59 152.25 1057.32 152.041C1058.04 151.831 1057.99 151.841 1057.95 151.465C1057.91 151.088 1058.58 152.035 1058.79 151.927C1058.97 151.827 1058.79 151.717 1058.79 151.717V151.716Z" fill="#C22E22"/>
        </g>
        <path d="M1046.26 159.482C1046.26 159.482 1047.44 159.968 1048.19 159.343C1048.94 158.715 1049.34 156.043 1050.94 155.569C1052.54 155.094 1052.92 155.058 1055.9 155.294C1058.88 155.529 1059.17 154.955 1059.17 154.955L1058.92 154.474C1058.7 154.068 1058.24 153.869 1057.8 153.997C1057.51 154.082 1057.1 154.176 1056.52 154.269C1054.67 154.568 1051.12 154.295 1051.12 154.295L1048.37 154.358C1048.06 154.365 1047.75 154.448 1047.48 154.599C1046.88 154.936 1046.5 155.572 1046.49 156.263L1046.26 159.482H1046.26Z" fill="#91415C"/>
        <path d="M1072.89 189.251L1077.95 193.035C1078.03 192.887 1078.11 192.735 1078.19 192.582C1078.38 192.206 1078.58 191.821 1078.77 191.425L1072.89 189.249V189.251Z" fill="#D47C74"/>
        <path d="M1070.53 198.206C1070.53 198.206 1071.73 199.975 1074.76 197.671C1075.27 197.291 1075.85 196.542 1076.49 195.556C1077.03 194.712 1077.61 193.693 1078.19 192.582L1071.21 188.189C1070.54 189.109 1070.02 189.878 1069.76 190.38C1069.7 190.502 1069.64 190.629 1069.59 190.753C1069.2 191.607 1068.98 192.517 1068.86 193.356C1068.61 195.145 1069.23 196.946 1070.53 198.204L1070.53 198.206Z" fill="#F9CEE1"/>
        <path d="M1057.78 188.231L1059.09 188.724C1060.39 189.214 1061.79 189.364 1063.15 189.166L1063.24 188.403C1063.28 188.298 1063.33 188.193 1063.37 188.09C1063.39 188.042 1063.4 187.997 1063.41 187.949C1063.44 187.887 1063.46 187.827 1063.48 187.765L1063.44 187.784C1062.17 188.322 1060.78 188.534 1059.41 188.396L1057.78 188.231Z" fill="#E5B3CB"/>
        <path d="M1054.16 188.491C1054.16 188.491 1054.12 188.491 1054.05 188.491C1053.99 188.491 1053.89 188.492 1053.76 188.494C1053.64 188.496 1053.49 188.503 1053.32 188.515C1053.15 188.516 1052.96 188.525 1052.76 188.535C1052.56 188.535 1052.35 188.554 1052.11 188.554C1052 188.554 1051.88 188.561 1051.77 188.565C1051.65 188.563 1051.53 188.565 1051.4 188.566C1051.16 188.571 1050.9 188.565 1050.65 188.563C1050.52 188.559 1050.39 188.553 1050.26 188.554C1050.14 188.547 1050.01 188.542 1049.88 188.535C1049.75 188.535 1049.62 188.523 1049.49 188.515C1049.36 188.504 1049.23 188.504 1049.11 188.489C1048.98 188.475 1048.85 188.468 1048.73 188.46C1048.6 188.446 1048.48 188.431 1048.36 188.422C1048.23 188.415 1048.12 188.391 1048 188.382C1047.88 188.369 1047.76 188.36 1047.65 188.343C1047.43 188.312 1047.21 188.291 1047.01 188.26C1046.81 188.236 1046.62 188.212 1046.46 188.186C1046.29 188.166 1046.14 188.149 1046.02 188.13C1045.77 188.097 1045.62 188.088 1045.62 188.088C1045.62 188.088 1045.73 188.192 1045.92 188.357C1046.01 188.441 1046.14 188.53 1046.28 188.63C1046.35 188.68 1046.43 188.731 1046.51 188.785C1046.6 188.833 1046.69 188.884 1046.78 188.938C1046.97 189.046 1047.18 189.141 1047.41 189.239C1047.64 189.331 1047.89 189.419 1048.15 189.493C1048.41 189.567 1048.68 189.632 1048.96 189.674C1049.1 189.699 1049.24 189.718 1049.39 189.73C1049.53 189.742 1049.68 189.761 1049.82 189.765C1049.97 189.768 1050.11 189.77 1050.25 189.773C1050.4 189.772 1050.54 189.759 1050.68 189.754C1050.83 189.751 1050.97 189.729 1051.11 189.711C1051.24 189.694 1051.38 189.679 1051.51 189.648C1051.65 189.62 1051.78 189.598 1051.9 189.567C1052.03 189.531 1052.15 189.5 1052.27 189.464C1052.51 189.397 1052.73 189.304 1052.93 189.227C1053.12 189.137 1053.3 189.048 1053.46 188.965C1053.61 188.878 1053.73 188.797 1053.84 188.728C1053.94 188.661 1054.02 188.596 1054.08 188.556C1054.13 188.513 1054.16 188.491 1054.16 188.491H1054.16Z" fill="#E5B3CB"/>
        <path d="M1070.01 198.323C1070.01 198.323 1071.73 199.973 1074.76 197.671C1075.27 197.291 1075.85 196.542 1076.49 195.557C1074.7 195.804 1072.27 195.333 1071.85 193.241C1071.52 191.626 1070.33 190.583 1068.96 190.481C1068.58 191.336 1068.58 192.551 1068.46 193.39C1068.2 195.18 1068.71 197.066 1070.01 198.325V198.323Z" fill="#E5B3CB"/>
        <path d="M1061.44 284.596C1060.18 285.469 1058.54 285.573 1057.18 284.864L1056.81 284.672C1056.76 284.641 1056.76 284.557 1056.82 284.532L1059.05 283.637L1061.44 284.594V284.596Z" fill="#F6A49D"/>
        <path d="M1045.93 284.627C1044.63 285.5 1043.04 285.573 1041.65 284.864L1041.24 284.665C1041.18 284.634 1041.19 284.55 1041.25 284.526L1043.57 283.637L1045.93 284.625V284.627Z" fill="#F6A49D"/>
        <path d="M1042.57 239.22C1042.88 240.27 1043.12 241.164 1043.25 241.829H1043.24C1043.25 241.848 1043.26 241.862 1043.26 241.879C1043.31 242.118 1042.6 244.475 1041.74 247.589H1052.95C1052.99 247.295 1053.02 247.011 1053.04 246.731C1053.09 246.002 1053.02 245.323 1053.03 244.929L1053.42 239.055C1054.92 242.911 1056.14 245.87 1056.14 245.87C1056.61 247.231 1056.46 246.277 1056.42 247.479C1056.42 247.515 1056.41 247.553 1056.41 247.589H1066.09C1066.12 247.195 1066.15 246.791 1066.19 246.387C1066.18 246.126 1066.17 245.901 1066.17 245.727C1066.19 245.223 1066.07 244.506 1065.98 243.829L1061.95 208.461C1061.9 208.392 1061.89 208.359 1061.89 208.359H1044.98C1044.98 208.359 1043.54 208.148 1040.73 217.165C1040.3 218.518 1039.95 220.146 1039.67 221.94C1039.58 222.462 1039.51 222.995 1039.43 223.54C1039.65 227.264 1040.43 231.414 1041.22 234.827C1041.68 236.304 1042.11 237.684 1042.46 238.876C1042.5 238.991 1042.53 239.104 1042.57 239.22H1042.57Z" fill="#D47C74"/>
        <path d="M1061.69 206.18C1061.69 206.18 1064 209.794 1066.14 221.106C1068.29 232.419 1067.72 245.413 1067.72 245.413H1038.12C1038.12 245.413 1037.72 223.998 1040.53 214.986C1043.35 205.974 1044.78 206.18 1044.78 206.18H1061.69Z" fill="#2C7193"/>
        <path d="M1044.49 206.699H1061.78V203.68H1044.49V206.699Z" fill="#2C7193"/>
        <path d="M1044.78 206.46C1044.63 206.46 1044.5 206.334 1044.5 206.18C1044.5 206.025 1044.62 205.898 1044.78 205.898L1061.3 205.808C1061.45 205.808 1061.58 205.934 1061.58 206.089C1061.58 206.243 1061.46 206.371 1061.3 206.371L1044.78 206.46Z" fill="#1E5A72"/>
        <path d="M1042.83 286.944L1041.99 292.114L1041.54 292.112L1042.04 286.605L1042.83 286.944Z" fill="#1E5A72"/>
        <path d="M1040.02 284.912L1040.67 292.107L1041.54 292.112L1042.18 286.726L1040.02 284.912Z" fill="#2C7193"/>
        <path d="M1054.83 291.443C1054.8 291.796 1054.51 292.112 1054.11 292.11C1051.94 292.105 1048.14 292.097 1048.03 292.097C1047.87 292.097 1046.61 290.518 1045.35 289.129C1044.09 287.74 1040.22 286.43 1039.55 284.731C1039.05 283.449 1040.17 280.335 1040.76 278.884C1040.95 278.413 1041.08 278.116 1041.08 278.116C1041.08 278.116 1042.62 279.005 1043.7 280.203C1044.78 281.403 1045.31 284.577 1046.08 285.522C1046.85 286.468 1049.67 286.359 1050.48 286.365C1051.05 286.368 1053.37 289.239 1054.68 290.922C1054.8 291.082 1054.85 291.266 1054.83 291.442V291.443Z" fill="#1E5A72"/>
        <path d="M1054.83 291.443C1052.61 290.845 1049.82 289.75 1047.13 287.745C1043.45 285.015 1041.61 281.289 1040.75 278.884C1040.94 278.413 1041.08 278.116 1041.08 278.116C1041.08 278.116 1042.62 279.005 1043.7 280.203C1044.77 281.403 1045.31 284.577 1046.08 285.522C1046.85 286.468 1049.67 286.359 1050.48 286.365C1051.05 286.368 1053.36 289.239 1054.67 290.922C1054.8 291.082 1054.84 291.266 1054.83 291.442L1054.83 291.443Z" fill="#2C7193"/>
        <path d="M1058.04 286.944L1057.2 292.114L1056.75 292.112L1057.25 286.605L1058.04 286.944Z" fill="#1E5A72"/>
        <path d="M1055.23 284.912L1055.88 292.107L1056.75 292.112L1057.39 286.726L1055.23 284.912Z" fill="#2C7193"/>
        <path d="M1070.04 291.443C1070.01 291.796 1069.72 292.112 1069.32 292.11C1067.15 292.105 1063.35 292.097 1063.24 292.097C1063.08 292.097 1061.82 290.518 1060.56 289.129C1059.3 287.74 1055.43 286.43 1054.76 284.731C1054.26 283.449 1055.38 280.335 1055.97 278.884C1056.16 278.413 1056.29 278.116 1056.29 278.116C1056.29 278.116 1057.83 279.005 1058.91 280.203C1059.99 281.403 1060.53 284.577 1061.29 285.522C1062.06 286.468 1064.88 286.359 1065.69 286.365C1066.26 286.368 1068.58 289.239 1069.89 290.922C1070.01 291.082 1070.06 291.266 1070.04 291.442V291.443Z" fill="#1E5A72"/>
        <path d="M1070.04 291.443C1067.82 290.845 1065.04 289.75 1062.34 287.745C1058.66 285.015 1056.83 281.289 1055.97 278.884C1056.15 278.413 1056.29 278.116 1056.29 278.116C1056.29 278.116 1057.83 279.005 1058.91 280.203C1059.99 281.403 1060.52 284.577 1061.29 285.522C1062.06 286.468 1064.88 286.359 1065.69 286.365C1066.26 286.368 1068.58 289.239 1069.88 290.922C1070.01 291.082 1070.06 291.266 1070.04 291.442L1070.04 291.443Z" fill="#2C7193"/>
        <path d="M1360.4 166.797H1349.53C1349.22 166.797 1348.98 166.551 1348.98 166.249V152.392C1348.98 152.089 1349.22 151.843 1349.53 151.843H1360.4C1360.7 151.843 1360.95 152.089 1360.95 152.392V166.249C1360.95 166.551 1360.7 166.797 1360.4 166.797ZM1350.08 165.7H1359.85V152.94H1350.08V165.7Z" fill="#CCECF2"/>
        <path d="M1351.87 157.89C1351.74 157.89 1351.61 157.845 1351.51 157.756L1350.64 156.998C1350.41 156.798 1350.38 156.453 1350.58 156.224C1350.78 155.997 1351.13 155.971 1351.36 156.171L1351.87 156.614L1353.11 155.526C1353.34 155.327 1353.68 155.349 1353.88 155.578C1354.08 155.806 1354.06 156.152 1353.83 156.351L1352.23 157.756C1352.12 157.847 1352 157.892 1351.87 157.892V157.89Z" fill="#CCECF2"/>
        <path d="M1358.93 157.188H1354.91C1354.61 157.188 1354.36 156.942 1354.36 156.64C1354.36 156.337 1354.61 156.091 1354.91 156.091H1358.93C1359.23 156.091 1359.48 156.337 1359.48 156.64C1359.48 156.942 1359.23 157.188 1358.93 157.188Z" fill="#CCECF2"/>
        <path d="M1351.87 160.572C1351.74 160.572 1351.61 160.527 1351.51 160.438L1350.64 159.679C1350.41 159.48 1350.38 159.134 1350.58 158.906C1350.78 158.679 1351.13 158.653 1351.36 158.852L1351.87 159.296L1353.11 158.208C1353.34 158.008 1353.68 158.031 1353.88 158.259C1354.08 158.488 1354.06 158.834 1353.83 159.033L1352.23 160.438C1352.12 160.529 1352 160.573 1351.87 160.573V160.572Z" fill="#CCECF2"/>
        <path d="M1358.93 159.869H1354.91C1354.61 159.869 1354.36 159.623 1354.36 159.32C1354.36 159.018 1354.61 158.772 1354.91 158.772H1358.93C1359.23 158.772 1359.48 159.018 1359.48 159.32C1359.48 159.623 1359.23 159.869 1358.93 159.869Z" fill="#CCECF2"/>
        <path d="M1351.87 163.252C1351.74 163.252 1351.61 163.207 1351.51 163.118L1350.64 162.36C1350.41 162.16 1350.38 161.815 1350.58 161.586C1350.78 161.357 1351.13 161.335 1351.36 161.533L1351.87 161.976L1353.11 160.888C1353.34 160.689 1353.68 160.711 1353.88 160.94C1354.08 161.168 1354.06 161.514 1353.83 161.713L1352.23 163.118C1352.12 163.209 1352 163.254 1351.87 163.254V163.252Z" fill="#CCECF2"/>
        <path d="M1358.93 162.551H1354.91C1354.61 162.551 1354.36 162.305 1354.36 162.002C1354.36 161.7 1354.61 161.454 1354.91 161.454H1358.93C1359.23 161.454 1359.48 161.7 1359.48 162.002C1359.48 162.305 1359.23 162.551 1358.93 162.551Z" fill="#CCECF2"/>
        <path d="M1284.66 91.0169C1282.19 88.6213 1279.88 88.4163 1279.23 88.7579C1278.51 89.1358 1277.32 90.9044 1276.71 91.0652C1276.09 91.2259 1275.48 91.3546 1273.79 89.3167C1272.45 87.7089 1267.16 80.0517 1266.7 78.3756C1266.23 76.6994 1267.63 76.2412 1268.1 76.1246C1268.57 76.0081 1270.34 75.791 1270.72 75.0354C1271.1 74.2797 1270.6 71.261 1269.98 69.5769C1269.36 67.8927 1268.44 66.51 1267.91 66.3733C1267.63 66.301 1266.74 66.3532 1265.6 66.727C1264.57 67.0647 1263.32 67.6716 1262.16 68.6885C1260.16 70.4451 1260.35 71.4339 1260.41 72.294C1260.47 73.1542 1261.56 77.0773 1263.89 81.4143C1266.2 85.7514 1267.91 88.553 1270.47 91.5917C1273.03 94.6305 1275.92 97.2914 1278.09 98.248C1280.63 99.3695 1282.96 98.1757 1283.83 97.6732C1284.25 97.4321 1284.78 97.0582 1285.26 96.6724C1285.77 96.2583 1286.23 95.8283 1286.45 95.5147C1286.88 94.9078 1287.14 93.4125 1284.67 91.0129L1284.66 91.0169Z" fill="#D9E2E9"/>
    </g>
    <defs>
        <clipPath id="clip0_2_1311">
            <rect width="1462" height="307" fill="white"/>
        </clipPath>
    </defs>
</svg>