<svg width="20" height="18" viewBox="0 0 20 18" fill="none" xmlns="http://www.w3.org/2000/svg">
<path d="M3.125 4C3.29076 4 3.44973 3.93415 3.56694 3.81694C3.68415 3.69973 3.75 3.54076 3.75 3.375C3.75 3.20924 3.68415 3.05027 3.56694 2.93306C3.44973 2.81585 3.29076 2.75 3.125 2.75C2.95924 2.75 2.80027 2.81585 2.68306 2.93306C2.56585 3.05027 2.5 3.20924 2.5 3.375C2.5 3.54076 2.56585 3.69973 2.68306 3.81694C2.80027 3.93415 2.95924 4 3.125 4ZM5.625 3.375C5.625 3.54076 5.55915 3.69973 5.44194 3.81694C5.32473 3.93415 5.16576 4 5 4C4.83424 4 4.67527 3.93415 4.55806 3.81694C4.44085 3.69973 4.375 3.54076 4.375 3.375C4.375 3.20924 4.44085 3.05027 4.55806 2.93306C4.67527 2.81585 4.83424 2.75 5 2.75C5.16576 2.75 5.32473 2.81585 5.44194 2.93306C5.55915 3.05027 5.625 3.20924 5.625 3.375ZM6.875 4C7.04076 4 7.19973 3.93415 7.31694 3.81694C7.43415 3.69973 7.5 3.54076 7.5 3.375C7.5 3.20924 7.43415 3.05027 7.31694 2.93306C7.19973 2.81585 7.04076 2.75 6.875 2.75C6.70924 2.75 6.55027 2.81585 6.43306 2.93306C6.31585 3.05027 6.25 3.20924 6.25 3.375C6.25 3.54076 6.31585 3.69973 6.43306 3.81694C6.55027 3.93415 6.70924 4 6.875 4Z" fill="#03A973"/>
<path d="M2.5 0.25C1.83696 0.25 1.20107 0.513392 0.732233 0.982233C0.263392 1.45107 0 2.08696 0 2.75L0 15.25C0 15.913 0.263392 16.5489 0.732233 17.0178C1.20107 17.4866 1.83696 17.75 2.5 17.75H17.5C18.163 17.75 18.7989 17.4866 19.2678 17.0178C19.7366 16.5489 20 15.913 20 15.25V2.75C20 2.08696 19.7366 1.45107 19.2678 0.982233C18.7989 0.513392 18.163 0.25 17.5 0.25H2.5ZM18.75 2.75V5.25H1.25V2.75C1.25 2.41848 1.3817 2.10054 1.61612 1.86612C1.85054 1.6317 2.16848 1.5 2.5 1.5H17.5C17.8315 1.5 18.1495 1.6317 18.3839 1.86612C18.6183 2.10054 18.75 2.41848 18.75 2.75ZM2.5 16.5C2.16848 16.5 1.85054 16.3683 1.61612 16.1339C1.3817 15.8995 1.25 15.5815 1.25 15.25V6.5H18.75V15.25C18.75 15.5815 18.6183 15.8995 18.3839 16.1339C18.1495 16.3683 17.8315 16.5 17.5 16.5H2.5Z" fill="#03A973"/>
</svg>
