<svg width="136" height="30" viewBox="0 0 136 30" fill="none" xmlns="http://www.w3.org/2000/svg">
<path fill-rule="evenodd" clip-rule="evenodd" d="M42.0979 11.3088L41.8901 12.5117C41.8589 12.622 41.7966 12.7222 41.7031 12.8024C41.5992 12.8826 41.4953 12.9227 41.381 12.9227H39.4795L38.3158 19.3282C38.2431 19.669 38.2119 19.9096 38.2119 20.0499C38.2119 20.2404 38.2639 20.3607 38.3678 20.4007C38.4717 20.4509 38.6587 20.4709 38.9289 20.4709H40.051C40.1445 20.4709 40.238 20.491 40.3108 20.521C40.3939 20.5411 40.4355 20.6113 40.4355 20.7215V20.7817L40.1965 22.0648C40.1549 22.2753 39.9991 22.3956 39.7289 22.4357C39.4692 22.4758 39.2198 22.5058 38.9808 22.5359C38.7522 22.566 38.5132 22.576 38.2743 22.576C37.3391 22.576 36.6326 22.4056 36.1339 22.0648C35.6455 21.7239 35.3962 21.1526 35.3962 20.3306C35.3962 20.1802 35.4065 20.0299 35.4273 19.8594C35.4481 19.6991 35.4793 19.5186 35.5001 19.3282L36.6638 12.9227L34.7208 12.642C34.4922 12.6119 34.3779 12.4917 34.3779 12.2912V12.231L34.5545 11.3088C34.5753 11.1985 34.6377 11.1083 34.7312 11.0281C34.8247 10.9479 34.9286 10.9078 35.0325 10.9078H37.0274L37.3391 9.23376C37.3703 9.12351 37.4327 9.03331 37.5262 8.96311C37.6197 8.89296 37.7132 8.85286 37.8275 8.82281L39.864 8.49201H39.9471C40.1445 8.49201 40.238 8.57216 40.238 8.74261V8.80276L39.8432 10.9078H41.7446C41.9836 10.9078 42.0979 11.0181 42.0979 11.2487V11.3088ZM52.6755 14.9476C52.6755 15.138 52.665 15.3285 52.644 15.529C52.6235 15.7194 52.592 15.9199 52.5715 16.1104L52.3945 17.0827C52.3325 17.4236 52.1555 17.594 51.896 17.594H44.9968C44.9656 17.7443 44.9448 17.8847 44.9241 18.015C44.9033 18.1453 44.8929 18.2856 44.8929 18.436C44.8929 18.9974 45.0487 19.4384 45.3708 19.7692C45.7033 20.1 46.254 20.2704 47.0437 20.2704C47.823 20.2704 48.5503 20.2404 49.2464 20.1902C49.9426 20.1401 50.5037 20.09 50.9608 20.0499H51.044C51.1271 20.0499 51.1998 20.0599 51.2622 20.09C51.3349 20.11 51.3661 20.1802 51.3661 20.2704V20.3506L51.1063 21.7039C51.0751 21.8643 51.0336 21.9846 50.9712 22.0648C50.9089 22.145 50.7738 22.2051 50.5764 22.2352C50.2231 22.2853 49.8906 22.3354 49.5893 22.3855C49.2776 22.4357 48.9555 22.4657 48.6334 22.4958C48.3113 22.5259 47.958 22.5459 47.5944 22.5559C47.2307 22.566 46.8047 22.576 46.3268 22.576C45.8592 22.576 45.3812 22.5058 44.8929 22.3755C44.3942 22.2352 43.9474 22.0046 43.5422 21.6939C43.1473 21.3731 42.8148 20.9521 42.5551 20.4208C42.2953 19.8995 42.1602 19.248 42.1602 18.4761C42.1602 18.2856 42.1706 18.0852 42.181 17.8847C42.1914 17.6842 42.2226 17.4637 42.2641 17.2531L42.5031 15.9901C42.6694 15.0378 42.9291 14.2258 43.2824 13.5542C43.6357 12.8926 44.0617 12.3513 44.5708 11.9303C45.0799 11.5193 45.6618 11.2186 46.3268 11.0381C46.9917 10.8577 47.7191 10.7575 48.5295 10.7575C49.236 10.7575 49.8491 10.8677 50.3686 11.0782C50.8881 11.2888 51.3245 11.5795 51.657 11.9504C51.9999 12.3313 52.2495 12.7723 52.4155 13.2836C52.592 13.7948 52.6755 14.3461 52.6755 14.9476ZM49.9218 14.9075C49.9218 14.306 49.7659 13.8549 49.4542 13.5442C49.1529 13.2435 48.6957 13.0831 48.1035 13.0831C47.2619 13.0831 46.6281 13.3337 46.2021 13.8249C45.7761 14.3161 45.4955 14.9275 45.3501 15.6794H49.8387C49.8699 15.539 49.8906 15.4187 49.901 15.2884C49.9114 15.1681 49.9218 15.0378 49.9218 14.9075ZM63.055 11.6596L62.837 12.8225C62.7955 13.0831 62.6705 13.2134 62.442 13.2134H62.359C62.2135 13.1833 62.016 13.1533 61.767 13.1332C61.507 13.1031 61.2265 13.0731 60.925 13.053C60.624 13.033 60.3015 13.0129 59.9695 12.9929C59.6265 12.9728 59.3045 12.9628 59.0135 12.9628C58.847 12.9628 58.66 12.9728 58.473 12.9929C58.286 13.0129 58.1095 13.053 57.943 13.1132C57.7875 13.1833 57.652 13.2735 57.538 13.3938C57.434 13.5141 57.382 13.6845 57.382 13.9051C57.382 14.1757 57.6005 14.4564 58.016 14.7371L60.499 16.371C61.133 16.792 61.5485 17.2131 61.7565 17.6341C61.954 18.0651 62.0575 18.4962 62.0575 18.9472C62.0575 19.5888 61.933 20.1301 61.6835 20.5912C61.424 21.0423 61.0915 21.4232 60.6655 21.7239C60.2395 22.0247 59.751 22.2352 59.1795 22.3755C58.6185 22.5058 58.016 22.576 57.382 22.576C57.216 22.576 56.977 22.576 56.6755 22.566C56.374 22.5559 56.052 22.5359 55.699 22.5058C55.356 22.4758 54.9925 22.4256 54.6285 22.3755C54.2545 22.3154 53.9015 22.2552 53.579 22.165C53.361 22.1049 53.257 21.9745 53.257 21.8041V21.7039L53.496 20.4709C53.517 20.3707 53.569 20.2805 53.652 20.2303C53.7245 20.1802 53.818 20.1501 53.9325 20.1501H53.995C54.2545 20.1802 54.5455 20.2003 54.8675 20.2303C55.1895 20.2604 55.512 20.2805 55.834 20.3005C56.1455 20.3206 56.447 20.3406 56.7275 20.3506C57.008 20.3707 57.226 20.3707 57.382 20.3707C57.9015 20.3707 58.338 20.3005 58.681 20.1602C59.034 20.0198 59.2005 19.7091 59.2005 19.2279C59.2005 19.0675 59.1485 18.9071 59.0445 18.7468C58.9405 18.5964 58.764 18.426 58.504 18.2556L55.9275 16.5414C55.512 16.2608 55.1795 15.9099 54.93 15.4889C54.6805 15.0579 54.5455 14.5967 54.5455 14.1056C54.5455 13.4239 54.691 12.8726 54.961 12.4415C55.2415 12.0205 55.595 11.6797 56.021 11.4291C56.447 11.1685 56.925 10.9981 57.455 10.9078C57.9845 10.8076 58.504 10.7575 59.0135 10.7575C59.647 10.7575 60.281 10.7976 60.915 10.8677C61.5485 10.9279 62.1615 11.0381 62.754 11.1885C62.9515 11.2487 63.055 11.3689 63.055 11.5594V11.6596ZM72.0635 11.3088L71.8455 12.5117C71.814 12.622 71.752 12.7222 71.6585 12.8024C71.5545 12.8826 71.4505 12.9227 71.3365 12.9227H69.435L68.271 19.3282C68.1985 19.669 68.167 19.9096 68.167 20.0499C68.167 20.2404 68.219 20.3607 68.323 20.4007C68.427 20.4509 68.614 20.4709 68.884 20.4709H70.0065C70.11 20.4709 70.1935 20.491 70.2765 20.521C70.349 20.5411 70.3905 20.6113 70.3905 20.7215V20.7817L70.152 22.0648C70.11 22.2753 69.9545 22.3956 69.6945 22.4357C69.4245 22.4758 69.175 22.5058 68.936 22.5359C68.7075 22.566 68.4685 22.576 68.2295 22.576C67.2945 22.576 66.588 22.4056 66.089 22.0648C65.601 21.7239 65.3515 21.1526 65.3515 20.3306C65.3515 20.1802 65.362 20.0299 65.3825 19.8594C65.4035 19.6991 65.4345 19.5186 65.4555 19.3282L66.619 12.9227L64.676 12.642C64.4475 12.6119 64.333 12.4917 64.333 12.2912V12.231L64.51 11.3088C64.5305 11.1985 64.593 11.1083 64.6865 11.0281C64.78 10.9479 64.884 10.9078 64.998 10.9078H66.9825L67.2945 9.23376C67.3255 9.12351 67.388 9.03331 67.4815 8.96311C67.575 8.89296 67.6685 8.85286 67.783 8.82281L69.8195 8.49201H69.9025C70.1 8.49201 70.1935 8.57216 70.1935 8.74261V8.80276L69.7985 10.9078H71.7C71.939 10.9078 72.0635 11.0181 72.0635 11.2487V11.3088ZM81.238 11.6596L81.02 12.8225C80.9785 13.0831 80.8435 13.2134 80.615 13.2134H80.5315C80.3965 13.1833 80.199 13.1533 79.9395 13.1332C79.69 13.1031 79.4095 13.0731 79.108 13.053C78.807 13.033 78.485 13.0129 78.142 12.9929C77.8095 12.9728 77.4875 12.9628 77.1965 12.9628C77.0195 12.9628 76.843 12.9728 76.656 12.9929C76.4585 13.0129 76.282 13.053 76.126 13.1132C75.96 13.1833 75.825 13.2735 75.721 13.3938C75.617 13.5141 75.565 13.6845 75.565 13.9051C75.565 14.1757 75.773 14.4564 76.199 14.7371L78.672 16.371C79.3055 16.792 79.7315 17.2131 79.929 17.6341C80.137 18.0651 80.2405 18.4962 80.2405 18.9472C80.2405 19.5888 80.116 20.1301 79.8565 20.5912C79.607 21.0423 79.264 21.4232 78.838 21.7239C78.4225 22.0247 77.9235 22.2352 77.3625 22.3755C76.8015 22.5058 76.199 22.576 75.565 22.576C75.399 22.576 75.16 22.576 74.8585 22.566C74.547 22.5559 74.225 22.5359 73.882 22.5058C73.539 22.4758 73.1755 22.4256 72.8015 22.3755C72.427 22.3154 72.0845 22.2552 71.752 22.165C71.544 22.1049 71.44 21.9745 71.44 21.8041V21.7039L71.6685 20.4709C71.7 20.3707 71.752 20.2805 71.835 20.2303C71.9075 20.1802 72.001 20.1501 72.1155 20.1501H72.178C72.4375 20.1802 72.718 20.2003 73.0505 20.2303C73.373 20.2604 73.695 20.2805 74.0065 20.3005C74.3285 20.3206 74.63 20.3406 74.9105 20.3506C75.191 20.3707 75.409 20.3707 75.565 20.3707C76.0845 20.3707 76.521 20.3005 76.864 20.1602C77.207 20.0198 77.3835 19.7091 77.3835 19.2279C77.3835 19.0675 77.3315 18.9071 77.2275 18.7468C77.1235 18.5964 76.9365 18.426 76.6875 18.2556L74.1 16.5414C73.695 16.2608 73.3625 15.9099 73.113 15.4889C72.853 15.0579 72.7285 14.5967 72.7285 14.1056C72.7285 13.4239 72.8635 12.8726 73.144 12.4415C73.4145 12.0205 73.7675 11.6797 74.204 11.4291C74.63 11.1685 75.108 10.9981 75.638 10.9078C76.1675 10.8076 76.6875 10.7575 77.1965 10.7575C77.83 10.7575 78.464 10.7976 79.098 10.8677C79.7315 10.9279 80.3445 11.0381 80.937 11.1885C81.1345 11.2487 81.238 11.3689 81.238 11.5594V11.6596ZM87.3165 7.16881L86.984 8.96311C86.953 9.07341 86.8905 9.17361 86.797 9.25381C86.714 9.33401 86.61 9.37411 86.4955 9.37411H84.4385C84.324 9.37411 84.241 9.34406 84.1685 9.28391C84.0955 9.22376 84.0645 9.13356 84.0645 9.02326V8.96311L84.397 7.16881C84.428 7.05851 84.4905 6.96831 84.5945 6.88811C84.688 6.79791 84.7915 6.75781 84.906 6.75781H86.9635C87.2025 6.75781 87.3165 6.87811 87.3165 7.10866V7.16881ZM86.4955 11.3088L84.5525 21.9846C84.5215 22.0948 84.459 22.1951 84.3555 22.2853C84.262 22.3655 84.158 22.4156 84.0435 22.4156H82.09C81.976 22.4156 81.893 22.3755 81.841 22.3154C81.7785 22.2452 81.7575 22.165 81.7575 22.0648V21.9846L83.7005 11.3088C83.732 11.1985 83.794 11.1083 83.8775 11.0281C83.971 10.9479 84.075 10.9078 84.189 10.9078H86.132C86.371 10.9078 86.4955 11.0181 86.4955 11.2487V11.3088ZM98.3095 11.6997C98.3095 11.7298 98.3095 11.7499 98.299 11.7699C98.299 11.79 98.2885 11.82 98.2885 11.8401L96.3665 22.3755C96.221 23.1173 96.034 23.7589 95.795 24.2801C95.556 24.8014 95.2235 25.2324 94.7975 25.5532C94.382 25.884 93.8415 26.1246 93.208 26.2749C92.5635 26.4253 91.7845 26.4955 90.87 26.4955C89.8415 26.4955 89 26.4353 88.345 26.315C87.701 26.1947 87.244 26.0845 86.9945 26.0043C86.88 25.9642 86.797 25.9241 86.7345 25.874C86.6725 25.8238 86.631 25.7436 86.631 25.6434C86.631 25.6234 86.641 25.6033 86.641 25.5833C86.6515 25.5632 86.6515 25.5432 86.6515 25.5131L86.87 24.4305C86.9115 24.1999 87.067 24.0897 87.3375 24.0897H87.379C87.618 24.1197 87.909 24.1398 88.2415 24.1698C88.584 24.1999 88.9375 24.22 89.301 24.24C89.665 24.2601 90.0285 24.2801 90.3715 24.3002C90.714 24.3202 91.005 24.3302 91.244 24.3302C92.0545 24.3302 92.6155 24.1999 92.948 23.9393C93.2805 23.6686 93.4885 23.1975 93.5715 22.5159L93.5925 22.3555C93.27 22.4256 92.948 22.4758 92.626 22.5058C92.2935 22.5359 91.982 22.5559 91.67 22.5559C91.0675 22.5559 90.496 22.4858 89.9555 22.3454C89.426 22.1951 88.958 21.9745 88.5635 21.6638C88.1685 21.343 87.857 20.9521 87.6285 20.4609C87.3995 19.9797 87.296 19.3983 87.296 18.6966C87.296 18.5062 87.296 18.3157 87.3165 18.1052C87.327 17.9047 87.358 17.6842 87.3995 17.4536L87.67 15.8798C87.8465 14.9275 88.0855 14.1256 88.4075 13.474C88.74 12.8225 89.145 12.2912 89.6545 11.8902C90.153 11.4892 90.735 11.1985 91.4105 11.0281C92.0755 10.8477 92.834 10.7575 93.6755 10.7575C94.361 10.7575 95.078 10.8076 95.8365 10.9179C96.595 11.0181 97.26 11.1384 97.821 11.2888C97.977 11.3289 98.1015 11.379 98.185 11.4391C98.268 11.4892 98.3095 11.5795 98.3095 11.6997ZM95.265 13.1533C95.0675 13.1031 94.787 13.063 94.413 13.0229C94.039 12.9828 93.6545 12.9628 93.2805 12.9628C92.408 12.9628 91.753 13.2034 91.3375 13.6845C90.922 14.1757 90.631 14.9075 90.465 15.8798L90.1845 17.4536C90.1425 17.7042 90.1115 17.9248 90.0805 18.1353C90.0595 18.3458 90.039 18.5463 90.039 18.7367C90.039 19.2881 90.174 19.689 90.444 19.9697C90.714 20.2404 91.2025 20.3707 91.9195 20.3707C92.179 20.3707 92.5015 20.3607 92.9065 20.3206C93.312 20.2905 93.665 20.2504 93.9765 20.2103L95.265 13.1533ZM115.422 13.7447C115.422 14.1356 115.381 14.5667 115.297 15.0478L114.019 21.9846C113.999 22.0948 113.936 22.1951 113.832 22.2853C113.739 22.3655 113.625 22.4156 113.521 22.4156H111.567C111.453 22.4156 111.37 22.3755 111.318 22.3154C111.256 22.2452 111.235 22.165 111.235 22.0648V21.9846L112.502 15.0478C112.534 14.8574 112.554 14.687 112.575 14.5266C112.596 14.3662 112.606 14.2258 112.606 14.1056C112.606 13.7146 112.502 13.444 112.305 13.2936C112.108 13.1432 111.785 13.063 111.339 13.063C111.141 13.063 110.84 13.1031 110.435 13.1833C110.04 13.2535 109.624 13.3838 109.198 13.5743C109.188 13.8048 109.177 14.0454 109.167 14.296C109.157 14.5366 109.136 14.7872 109.094 15.0478L107.827 21.9846C107.796 22.0948 107.733 22.1951 107.64 22.2853C107.536 22.3655 107.432 22.4156 107.318 22.4156H105.375C105.26 22.4156 105.177 22.3755 105.115 22.3154C105.063 22.2452 105.032 22.165 105.032 22.0648V21.9846L106.299 15.0478C106.341 14.8473 106.372 14.6569 106.383 14.4965C106.403 14.3361 106.403 14.1857 106.403 14.0454C106.403 13.6645 106.32 13.4039 106.133 13.2735C105.946 13.1332 105.634 13.063 105.198 13.063C104.782 13.063 104.086 13.2936 103.13 13.7447L101.624 21.9846C101.603 22.0948 101.53 22.1951 101.437 22.2853C101.333 22.3655 101.229 22.4156 101.115 22.4156H99.172C99.0575 22.4156 98.9745 22.3755 98.9225 22.3154C98.86 22.2452 98.8395 22.165 98.8395 22.0648V21.9846L100.782 11.3088C100.813 11.1985 100.865 11.1083 100.959 11.0281C101.052 10.9479 101.156 10.9078 101.27 10.9078H103.11C103.349 10.9078 103.463 11.0181 103.463 11.2487V11.3088L103.38 11.7398C103.878 11.4692 104.367 11.2386 104.845 11.0482C105.323 10.8577 105.884 10.7575 106.518 10.7575C107.12 10.7575 107.598 10.8577 107.962 11.0582C108.325 11.2587 108.596 11.4892 108.772 11.7599C109.313 11.4191 109.884 11.1685 110.487 11.0081C111.1 10.8377 111.765 10.7575 112.502 10.7575C113.521 10.7575 114.258 11.0281 114.726 11.5594C115.183 12.0907 115.422 12.8124 115.422 13.7447ZM127.6 11.6797C127.6 11.7499 127.589 11.8 127.579 11.8401L125.74 22.0046C125.708 22.1149 125.646 22.2151 125.542 22.2953C125.449 22.3755 125.345 22.4156 125.231 22.4156H123.537C123.308 22.4156 123.194 22.2953 123.194 22.0648V22.0046L123.288 21.4132C122.685 21.8543 122.124 22.155 121.594 22.3254C121.054 22.4958 120.524 22.576 120.004 22.576C119.526 22.576 119.069 22.4958 118.653 22.3454C118.227 22.1851 117.853 21.9545 117.542 21.6437C117.22 21.323 116.97 20.9421 116.794 20.4809C116.627 20.0299 116.534 19.4986 116.534 18.8871C116.534 18.6966 116.544 18.4962 116.555 18.2856C116.565 18.0751 116.596 17.8646 116.638 17.6541C116.669 17.4536 116.7 17.2532 116.742 17.0426C116.773 16.8722 116.814 16.6818 116.856 16.4713C116.898 16.2708 116.929 16.0703 116.96 15.8798C117.251 14.276 117.905 13.0229 118.903 12.1208C119.9 11.2086 121.261 10.7575 122.965 10.7575C123.641 10.7575 124.347 10.8076 125.075 10.9078C125.792 10.9981 126.477 11.1284 127.111 11.2888C127.267 11.3289 127.381 11.379 127.475 11.4291C127.558 11.4692 127.6 11.5594 127.6 11.6797ZM124.555 13.1031C124.358 13.063 124.067 13.033 123.693 13.0029C123.319 12.9828 122.945 12.9628 122.56 12.9628C122.113 12.9628 121.729 13.043 121.397 13.1934C121.074 13.3437 120.804 13.5442 120.586 13.8048C120.368 14.0554 120.191 14.3662 120.056 14.717C119.921 15.0779 119.817 15.4588 119.755 15.8798L119.37 17.9849C119.339 18.1353 119.318 18.2856 119.308 18.426C119.287 18.5663 119.287 18.6966 119.287 18.8269C119.287 19.4084 119.422 19.8093 119.703 20.0399C119.994 20.2604 120.337 20.3707 120.742 20.3707C121.158 20.3707 121.573 20.3005 122.01 20.1501C122.446 19.9998 122.913 19.7893 123.391 19.5186L124.555 13.1031Z" fill="#0A1A2A"/>
<path d="M31.754 10.8963C31.4706 10.4853 31.0611 10.2448 30.5572 10.1846C30.3263 10.1545 30.0743 10.1144 29.8433 10.0743C29.5494 10.0342 29.2449 9.9941 28.9405 9.95405C28.1321 9.88385 27.6386 9.5631 27.3342 8.93155C27.1348 8.5005 27.1138 8.1196 27.2607 7.7387L27.3762 7.458C27.5757 6.9568 27.7857 6.44555 28.0061 5.94435C28.2266 5.4632 28.2056 4.98205 27.9641 4.5209C27.5127 3.67888 26.7988 3.09748 25.8645 2.78673C25.3291 2.61632 24.8041 2.67646 24.3212 2.97719C24.1007 3.11753 23.8593 3.25786 23.6283 3.38818C23.3028 3.57864 22.9669 3.7691 22.652 3.97961C22.4315 4.12997 22.1585 4.21016 21.8541 4.21016C21.0982 4.21016 20.3633 3.729 20.1849 3.12755C20.0904 2.80677 19.9749 2.486 19.8594 2.17525C19.7649 1.91462 19.6705 1.64397 19.5865 1.37331C19.408 0.81196 19.0196 0.421015 18.4317 0.21051C18.2532 0.150365 18.0852 0.110265 17.9067 0.07017C17.8438 0.05012 17.7597 0.030075 17.6967 0.010025L17.6548 0H16.6784L16.6469 0.010025C16.6259 0.02005 16.6049 0.02005 16.584 0.030075C16.563 0.040095 16.5315 0.05012 16.5105 0.05012C15.5132 0.22053 14.9147 0.71172 14.6943 1.54373C14.5893 1.9046 14.4528 2.2755 14.3268 2.63636C14.2534 2.82682 14.1798 3.01729 14.1168 3.20775C13.9279 3.77912 13.214 4.23021 12.5106 4.23021C12.2271 4.23021 11.9647 4.15001 11.7443 4.00968C11.3453 3.74905 10.9359 3.50847 10.537 3.27791C10.3375 3.16764 10.1485 3.05738 9.9595 2.94711C9.5921 2.72658 9.18265 2.65641 8.7732 2.75665C7.6814 3.00726 6.87302 3.6488 6.3796 4.65125C6.18013 5.0522 6.16963 5.49325 6.3586 5.9343C6.44258 6.1348 6.52658 6.3353 6.61056 6.5358C6.73654 6.84655 6.86252 7.1573 6.999 7.46805C7.29295 8.09955 7.26145 8.6609 6.89401 9.21225C6.64206 9.6032 6.30611 9.8237 5.87568 9.9039C5.25628 10.0142 4.59488 10.1144 3.9125 10.1946C3.32459 10.2548 2.87316 10.5354 2.55822 11.0166C2.12778 11.6681 1.94931 12.42 2.0123 13.2219C2.07529 13.9838 2.45323 14.5251 3.14612 14.8358C3.39808 14.9561 3.63954 15.0864 3.881 15.2168C4.14346 15.357 4.41642 15.5075 4.69987 15.6378C5.1093 15.8182 5.41375 16.2292 5.51873 16.7304C5.61322 17.2617 5.47674 17.793 5.15129 18.1137C4.68937 18.5749 4.22744 19.066 3.79701 19.5873C3.60804 19.8179 3.46107 20.1085 3.40858 20.3792C3.20911 21.4718 4.16445 23.0857 5.24578 23.4667C5.50824 23.5569 5.84418 23.587 6.14863 23.5469C6.72604 23.4566 7.32445 23.3463 7.97535 23.196C8.63675 23.0356 9.15115 23.1659 9.64455 23.6371C10.0225 23.9879 10.1905 24.3588 10.18 24.83C10.159 25.4414 10.1485 26.093 10.117 26.7446C10.0855 27.2358 10.2745 27.6668 10.6419 28.0177C11.2403 28.569 11.9857 28.8997 12.8675 28.99C12.962 29 13.0565 29 13.151 29C13.8229 29 14.3583 28.7293 14.7572 28.188C14.9042 27.9875 15.0722 27.7871 15.2507 27.5866C15.4397 27.366 15.6286 27.1556 15.7966 26.9149C16.0801 26.514 16.6049 26.2834 17.1824 26.2834C17.7493 26.2834 18.2637 26.514 18.5576 26.9049C18.7886 27.2257 19.0511 27.5265 19.303 27.8272C19.4605 28.0076 19.618 28.188 19.7649 28.3785C20.0484 28.7293 20.4368 28.9398 20.8778 28.9799C21.9381 29.0702 22.8934 28.7594 23.7018 28.0477C24.0903 27.7169 24.2687 27.2759 24.2372 26.7446C24.2267 26.514 24.2267 26.2734 24.2162 26.0429C24.2057 25.7422 24.2057 25.4314 24.1742 25.1206C24.1217 24.3989 24.3527 23.8676 24.9196 23.4767C25.2871 23.2161 25.6545 23.1258 26.0534 23.1859C26.7673 23.2962 27.4077 23.4265 28.0061 23.5669C28.6255 23.7173 29.2029 23.5769 29.6964 23.1559C30.3263 22.6346 30.7357 21.963 30.9037 21.1812C31.0506 20.5196 30.8932 19.9481 30.4207 19.487C30.2318 19.2966 30.0533 19.0961 29.8853 18.9056C29.7069 18.7151 29.5283 18.5147 29.3394 18.3242C28.825 17.823 28.6885 17.3018 28.8775 16.6301C29.014 16.1691 29.2449 15.8583 29.6229 15.6578C30.2423 15.317 30.8197 15.0162 31.3971 14.7355C31.8485 14.505 32.1425 14.1442 32.2579 13.673C32.5204 12.6806 32.3524 11.7484 31.754 10.8963Z" fill="url(#paint0_linear_12216_422)"/>
<path d="M17.574 11.1954L17.5844 11.1352L17.6259 10.1027C17.6155 10.0526 17.6363 9.87218 17.6363 9.84208C17.6363 9.29078 17.6675 9.33088 17.7194 8.27833C17.7194 8.19813 17.6883 8.11793 17.6155 8.05778C17.5532 8.00768 17.4701 7.98763 17.3869 8.00768C16.9402 8.11793 16.3687 8.23823 15.7141 8.36853C15.5894 8.38858 15.5063 8.49883 15.4959 8.61913C15.4232 9.59148 15.4336 9.36093 15.392 9.81203L15.2881 11.1051C15.2881 11.1051 15.2881 11.1051 15.2881 11.1152L15.2258 12.3281L15.0803 14.9845L15.0283 15.9268C14.966 17.1397 14.9348 17.8213 14.9244 18.0218C14.9141 18.2223 14.9141 18.3727 14.9141 18.4629C14.9141 19.1044 15.0283 19.6457 15.2569 20.0367C15.4959 20.4377 15.8388 20.7384 16.2752 20.9188C16.6908 21.0993 17.2311 21.1795 17.8961 21.1795C18.1558 21.1795 18.4468 21.1694 18.7377 21.1394C19.0286 21.1093 19.4234 21.0291 19.9118 20.9188C20.0157 20.8887 20.0988 20.8086 20.1196 20.6983C20.1612 20.4377 20.2027 20.1169 20.2339 19.8061C20.2858 19.4352 20.3274 19.0443 20.369 18.8639C20.3897 18.7536 20.3586 18.6534 20.2755 18.5932C20.1923 18.523 20.078 18.513 19.9949 18.5631C19.517 18.8037 19.2468 18.904 18.8104 18.9842C18.665 19.0142 18.5299 19.0142 18.3844 19.0142H18.3117C18.1143 19.0142 17.8441 18.9541 17.6259 18.8438C17.4285 18.7436 17.3869 18.7135 17.3454 18.5431C17.283 18.2323 17.283 18.1722 17.283 17.8013V17.6409L17.2934 17.1898L17.4493 13.8417L17.574 11.1954Z" fill="white"/>
<path d="M23.0543 11.3306L22.5867 10.3583C22.5036 10.1979 22.3685 10.0676 22.2023 10.0074C22.036 9.94728 21.849 9.95728 21.6827 10.0375L18.2435 11.6815V11.6213L15.7706 12.8643L14.316 13.556L13.7549 12.3831C13.6822 12.2228 13.5471 12.1025 13.3705 12.0423C13.2042 11.9822 13.0276 11.9822 12.8614 12.0624L11.8847 12.5235C11.5522 12.6839 11.4067 13.0848 11.5626 13.4156L12.8718 16.1823C12.9549 16.3427 13.0899 16.463 13.2562 16.5231C13.3289 16.5532 13.4017 16.5632 13.4744 16.5632C13.5783 16.5632 13.6822 16.5432 13.7653 16.5031L15.6252 15.6109L18.1189 14.4281L22.7322 12.2228C23.0646 12.0624 23.2101 11.6614 23.0543 11.3306Z" fill="white"/>
<path fill-rule="evenodd" clip-rule="evenodd" d="M131.25 4.5C129.731 4.5 128.5 5.73122 128.5 7.25C128.5 8.76878 129.731 10 131.25 10C132.769 10 134 8.76878 134 7.25C134 5.73122 132.769 4.5 131.25 4.5ZM128 7.25C128 5.45507 129.455 4 131.25 4C133.045 4 134.5 5.45507 134.5 7.25C134.5 9.04493 133.045 10.5 131.25 10.5C129.455 10.5 128 9.04493 128 7.25ZM130.25 6C130.25 5.86193 130.362 5.75 130.5 5.75H131.5C131.765 5.75 132.02 5.85536 132.207 6.04289C132.395 6.23043 132.5 6.48478 132.5 6.75C132.5 7.01522 132.395 7.26957 132.207 7.45711C132.132 7.53172 132.047 7.59332 131.955 7.64046L132.455 8.35689C132.534 8.47011 132.506 8.62596 132.393 8.70497C132.28 8.78398 132.124 8.75625 132.045 8.64302L131.422 7.75H130.75V8.5C130.75 8.63807 130.638 8.75 130.5 8.75C130.362 8.75 130.25 8.63807 130.25 8.5V6ZM130.75 7.25H131.5C131.504 7.25 131.507 7.24996 131.511 7.24989C131.526 7.24751 131.541 7.24651 131.556 7.24688C131.668 7.23429 131.773 7.18407 131.854 7.10355C131.947 7.00979 132 6.88261 132 6.75C132 6.61739 131.947 6.49021 131.854 6.39645C131.76 6.30268 131.633 6.25 131.5 6.25H130.75V7.25Z" fill="#0A1A2A"/>
<defs>
<linearGradient id="paint0_linear_12216_422" x1="2" y1="5.11765" x2="32.4188" y2="-0.626148" gradientUnits="userSpaceOnUse">
<stop stop-color="#00B2BD"/>
<stop offset="0.656851" stop-color="#09C0A1"/>
</linearGradient>
</defs>
</svg>
