<?xml version="1.0" standalone="no"?>
<!DOCTYPE svg PUBLIC "-//W3C//DTD SVG 20010904//EN"
 "http://www.w3.org/TR/2001/REC-SVG-20010904/DTD/svg10.dtd">
<svg version="1.0" xmlns="http://www.w3.org/2000/svg"
 width="192.000000pt" height="192.000000pt" viewBox="0 0 192.000000 192.000000"
 preserveAspectRatio="xMidYMid meet">
<metadata>
Created by potrace 1.14, written by Peter Selinger 2001-2017
</metadata>
<g transform="translate(0.000000,192.000000) scale(0.100000,-0.100000)"
fill="#000000" stroke="none">
<path d="M873 1901 c-46 -21 -60 -43 -87 -136 -20 -67 -30 -83 -66 -108 -39
-27 -79 -21 -145 23 -32 21 -72 44 -87 51 -57 23 -137 -12 -188 -82 -38 -53
-38 -84 0 -182 34 -89 36 -106 15 -147 -20 -40 -55 -55 -150 -69 -71 -10 -83
-15 -112 -45 -58 -63 -70 -181 -22 -232 13 -13 52 -41 88 -61 82 -45 100 -66
101 -120 0 -34 -7 -50 -43 -93 -77 -96 -87 -113 -87 -153 0 -73 66 -168 127
-183 13 -4 65 2 115 11 87 17 92 17 124 0 51 -28 68 -73 60 -167 -5 -60 -3
-85 9 -108 27 -53 110 -100 177 -100 45 0 81 24 128 85 59 77 85 95 133 95 44
0 35 7 162 -137 54 -61 158 -54 237 16 l41 37 -2 97 c-2 115 13 157 64 181 31
15 41 15 107 1 92 -19 121 -19 159 1 35 18 86 93 95 141 9 50 -1 76 -61 147
-68 80 -79 105 -65 156 11 42 33 61 115 103 73 37 95 65 102 130 5 45 1 64
-20 111 -30 64 -54 79 -147 90 -86 10 -117 24 -140 60 -26 44 -25 66 10 156
33 84 37 118 16 158 -30 57 -110 112 -163 112 -15 0 -67 -23 -116 -51 -73 -42
-94 -50 -120 -45 -56 11 -74 31 -102 115 -14 44 -36 92 -47 107 -43 54 -138
70 -215 35z m87 -640 l0 -127 134 67 c82 42 142 66 154 62 24 -6 66 -93 58
-119 -4 -13 -66 -49 -177 -104 -94 -47 -175 -93 -180 -102 -5 -9 -9 -69 -9
-132 0 -104 2 -116 19 -126 28 -14 92 -12 121 5 49 28 54 22 46 -57 -4 -40
-10 -76 -14 -80 -19 -19 -133 -30 -188 -20 -113 23 -136 62 -135 228 l1 114
-40 -20 c-45 -23 -73 -25 -87 -7 -23 28 -94 201 -91 220 3 24 71 67 106 67 17
0 27 -11 44 -47 13 -27 23 -49 24 -51 1 -1 13 2 27 9 29 13 32 28 43 212 3 59
11 110 16 113 16 10 112 31 121 27 4 -2 7 -61 7 -132z"/>
</g>
</svg>
